<?xml version="1.0" encoding="UTF-8" standalone="no"?>
<svg
   xmlns:dc="http://purl.org/dc/elements/1.1/"
   xmlns:cc="http://creativecommons.org/ns#"
   xmlns:rdf="http://www.w3.org/1999/02/22-rdf-syntax-ns#"
   xmlns:svg="http://www.w3.org/2000/svg"
   xmlns="http://www.w3.org/2000/svg"
   viewBox="0 0 1350.8267 1350.84"
   height="1350.84"
   width="1350.8267"
   xml:space="preserve"
   id="svg2"
   version="1.1"><metadata
     id="metadata8"><rdf:RDF><cc:Work
         rdf:about=""><dc:format>image/svg+xml</dc:format><dc:type
           rdf:resource="http://purl.org/dc/dcmitype/StillImage" /></cc:Work></rdf:RDF></metadata><defs
     id="defs6" /><g
     transform="matrix(1.3333333,0,0,-1.3333333,0,1350.84)"
     id="g10"><g
       transform="scale(0.1)"
       id="g12"><path
         id="path14"
         style="fill:#1e264d;fill-opacity:1;fill-rule:nonzero;stroke:none"
         d="m 5065.68,9894.62 v -0.39 h -0.16 v 0.39 C 3736.32,9894.62 2529.23,9352.2 1654.13,8477.25 779.18,7602.22 236.684,6395.05 236.684,5065.7 h 0.468 v 0 -0.08 h -0.468 C 236.684,3736.35 779.18,2529.26 1654.13,1654.31 2529.08,779.199 3736.32,236.711 5065.68,236.711 v 0.469 0 h 0.15 v -0.469 c 1329.2,0 2536.29,542.488 3411.25,1417.599 875.1,874.95 1417.44,2082.04 1417.44,3411.31 h -0.32 v 0.08 0.08 h 0.32 c 0,1329.27 -542.34,2536.44 -1417.44,3411.39 -874.96,875.03 -2082.05,1417.45 -3411.4,1417.45 z m 0,236.68 v 0 -0.4 c 1395.34,-0.1 2661.83,-568.74 3579.11,-1486.09 917.27,-917.27 1485.91,-2183.69 1485.91,-3579.03 h 0.5 v -0.08 -0.08 h -0.5 C 10130.7,3670.36 9562.06,2403.86 8644.79,1486.59 7727.51,569.32 6461.02,0.601563 5065.83,0.5 V 0 h -0.15 V 0 0.5 C 3670.18,0.601563 2403.84,569.32 1486.57,1486.59 569.141,2403.86 0.46875,3670.36 0.46875,5065.62 H 0 v 0.08 0 h 0.46875 c 0,1395.42 568.67225,2661.84 1486.10125,3579.19 917.27,917.27 2183.61,1485.91 3578.95,1486.01 v 0.4 h 0.16" /><path
         id="path16"
         style="fill:#1e264d;fill-opacity:1;fill-rule:evenodd;stroke:none"
         d="m 5723.06,3538.07 -256.9,17.87 c 45.14,-25.08 57.68,-21.48 113.64,-38.72 10.19,-3.14 -101.73,-0.16 -112.7,-3.45 14.11,-6.74 31.35,-16.3 24.77,-19.28 -77.74,-34.48 108.47,-51.73 77.74,-51.73 -7.37,0 23.2,-3.75 17.4,-4.07 -12.7,-0.31 -59.25,2.82 -66.3,1.72 10.82,-6.42 13.94,-11.76 -1.73,-17.39 12.86,-2.82 31.36,-5.18 54.39,-6.27 46.71,-2.2 67.56,-28.54 9.88,-19.76 -38.09,5.8 -123.52,20.38 -47.02,-13.47 16.14,-7.21 89.5,-29.79 66.77,-37.15 -70.07,-22.89 -42.48,-42.79 11.13,-55.65 57.37,-13.63 -87.15,-19.74 -81.51,-22.25 29.15,-13.02 68.03,-15.36 100,-22.26 97.81,-20.69 -74.76,-22.89 -100,-25.87 -13.01,-1.56 192.8,-37.15 81.51,-37.15 -10.03,0 -21.17,1.26 -31.82,0.63 -0.63,-3.14 -1.73,-6.9 -3.14,-10.97 38.4,-11.6 120.7,-34.01 31.35,-34.01 -144.83,0 142.33,-22.26 55.49,-22.26 -4.07,0 9.25,-5.49 -3.29,-6.74 -34.95,-3.45 -87.77,1.1 -110.04,0.63 l -3.13,-2.98 c 20.85,-15.36 49.84,-8.78 71.95,-16.78 3.13,-1.25 37.46,-16.92 18.5,-18.65 -27.28,-2.35 -122.43,-11.12 -49.38,-13.63 36.67,-1.1 66.46,9.87 80.41,-5.96 -0.95,-0.31 -89.66,-14.11 -90.45,-14.27 14.74,-1.4 36.06,-0.15 40.92,-5.95 11.75,-14.26 -81.51,-32.76 -63.49,-46.24 10.34,-7.52 84.64,-21.95 84.81,-23.04 0.47,-6.11 -51.26,-0.94 -23.67,-6.58 91.53,-18.81 126.02,-24.61 79.47,-19.91 -25.87,2.66 279.16,-11.44 240.91,9.56 -34.95,19.28 54.55,3.61 37.3,16.46 l -0.16,0.16 c -28.05,2.98 -78.36,-2.2 -71,1.72 8.15,4.39 46.72,12.86 51.57,15.68 -6.74,1.09 -40.28,-1.57 -48.43,-0.32 -24.14,-6.12 -51.1,1.88 -67.4,1.88 -9.09,0 72.73,13.48 100,23.52 -8.31,1.25 -38.24,4.07 -47.18,5.48 -62.86,10.19 -167.88,10.04 -160.97,18.34 3.29,3.76 97.64,15.51 150.15,19.44 7.84,8.77 40.13,10.65 54.24,18.5 0.94,2.81 0.16,5.63 -3.13,7.83 -7.22,0 -18.34,-0.94 -34.96,-2.82 -22.89,-2.83 -47.18,-7.52 -70.53,-7.52 -43.89,0 25.86,22.56 62.85,34.63 -6.43,2.67 21.47,5.81 14.11,9.25 -7.68,3.76 -71.64,5.18 -91.23,9.41 -11.6,2.51 19.59,7.52 13.16,10.03 -5.63,2.19 83.71,9.4 91.08,11.91 -3.14,0.31 21.63,8.78 7.99,8.78 -30.25,-0.31 -108.94,-9.4 -105.33,-6.11 17.24,15.51 45.92,16.14 74.77,21.16 1.09,4.07 14.73,12.54 -5.49,13.16 -70.38,2.67 -82.29,9.09 -92.01,9.25 -89.97,2.67 -85.74,32.44 -73.67,37.77 6.11,2.67 138.88,3.29 100,19.76 h -0.16 c -22.1,-0.63 -36.67,0.62 -23.5,8.3 -9.56,2.82 -61.29,-5.8 -71.01,-2.98 -31.66,9.72 120.54,10.35 93.73,29.79 -7.83,5.8 -40.75,2.19 -46.55,6.89 -13.95,0.94 31.97,12.23 41.22,18.81 -13.01,11.91 -68.65,10.35 -62.38,16.31 -11.76,-2.35 -31.98,10.81 -43.73,10.81 -24.93,0 83.23,-5.18 127.58,9.87 -1.4,1.42 -3.13,2.82 -5.63,4.4 -22.74,-5.18 -52.83,6.89 -76.18,4.23 -79.79,-9.1 -33.08,7.52 14.89,23.03 5.96,1.89 11.76,3.77 17.55,5.65 -6.27,0.94 -19.28,8.15 -28.06,9.09 -19.12,2.35 -35.89,-1.25 -46.86,2.51 -29.47,10.34 -24.77,18.34 13,18.34 111.62,-0.16 -162.85,44.2 -130.72,51.57 35.28,7.83 100.17,-2.51 134.96,4.39 18.19,3.76 19.59,0 16.93,12.53 -15.21,-2.82 -96.24,4.08 -116.61,7.06 -13.96,2.04 -3.14,6.11 -7.38,5.48 -24.76,-4.22 102.04,7.85 123.52,11.61 -0.78,2.19 -1.72,4.07 -2.82,6.26 -37.31,3.45 -120.07,-1.25 -37.78,9.25 l 29.63,3.76 -0.48,0.78 c -14.88,0.64 -45.45,1.58 -53.91,2.83 -16.15,2.51 10.03,8.78 38.55,14.11 z m 480.43,-465.23 c 9.25,4.24 15.68,9.25 10.97,13.8 -0.31,0.31 -8.62,1.25 -17.55,2.67 -1.89,4.85 -3.93,10.18 -5.8,15.52 13.94,4.69 31.5,9.4 27.12,15.2 -0.79,1.09 -17.09,0.16 -32.61,0.16 -2.2,6.27 -4.38,12.54 -6.43,18.96 6.43,4.23 11.28,9.09 9.41,14.27 -0.16,0.62 -0.47,13.79 -11.13,14.73 -2.5,0.31 -5.01,0 -7.37,-0.63 -1.09,3.76 -2.04,7.52 -3.13,10.98 1.09,0.31 1.09,0.62 -0.16,0.78 -5.64,19.9 -8.93,35.11 -7.21,38.08 4.23,7.53 38.4,5.34 16.77,17.72 -10.34,6.11 -35.43,16.45 -17.09,21.16 8,2.19 35.9,-5.02 5.65,17.86 -5.65,4.08 -35.11,17.87 -22.26,31.67 12.23,13.48 26.18,0.94 -1.09,17.71 -7.38,4.55 -36.21,9.57 -20.23,17.71 36.84,19.12 1.26,6.58 -31.03,46.09 -8.31,10.03 10.66,23.36 11.76,24.76 16.45,18.03 -39.51,29.94 -58.16,84.8 -6.58,19.28 15.36,11.91 5.02,24.76 -4.86,6.12 -8.62,11.14 -11.29,14.9 l 55.96,-3.76 317.57,-628.55 5.33,-9.72 c -12.07,-3.76 -94.05,5.01 -95.77,5.01 -21.63,0 5.16,1.11 -44.06,21.17 -14.72,6.11 10.98,0.46 8.63,7.06 -0.47,1.25 -40.13,16.61 -47.65,24.76 -13.32,14.42 23.04,34.48 12.54,49.53 -11.13,15.68 -36.52,7.84 -49.69,21.31 -8.31,8.47 24.92,18.5 13.95,28.22 -2.19,1.88 -6.27,9.88 -10.97,21.31 z m -885.77,328.24 c 0,-9.57 0.16,-19.45 0.31,-29.48 -22.88,-19.9 -28.99,-19.27 -6.42,-66.77 8.62,-18.18 -19.91,0 -9.25,-9.09 5.8,-5.02 11.91,-8.46 17.56,-15.36 13,-15.36 -32.92,-17.09 -35.27,-18.49 -10.97,-6.44 36.36,-45.46 41.22,-61.45 3.45,-11.44 -15.04,-13.17 -14.26,-18.34 0.79,-6.11 -9.41,-42.48 8.62,-46.24 37.77,-8.15 -5.17,-33.23 10.19,-39.19 11.75,-4.7 30.72,-23.83 18.97,-28.84 -34.33,-14.11 -4.55,-45.14 -10.98,-45.14 -17.08,0 -4.69,5.8 5.18,-15.21 5.01,-10.81 -21.32,-8.14 -15.99,-13.63 -28.69,6.58 -47.81,10.81 -47.81,10.81 l -48.12,561.15 c -0.15,1.72 -3.61,17.87 -2.35,18.97 l 55.18,-5.65 c 7.36,-7.36 7.67,-24.14 8.61,-22.57 2.51,0 20.07,-61.13 2.51,-70.53 -12.38,-6.59 -25.39,-4.87 -37.93,-12.23 -11.29,-6.89 73.2,-39.97 34.48,-39.97 -21.63,0 9.09,-15.67 25.55,-32.75 z m -1262.73,-212.4 c -7.84,1.25 -16.3,1.72 -26.96,1.72 -34.33,0 -10.04,-9.4 7.37,-14.73 3.76,-1.25 10.34,-0.94 16.45,-0.63 -1.72,-5.95 -3.76,-12.22 -6.27,-18.5 -13.01,-8.3 -16.14,-6.89 -32.45,-6.89 -5.79,0 -25.54,6.74 -22.25,0 3.6,-7.21 22.88,-16.14 39.66,-22.41 -4.39,-7.84 -8,-15.52 -10.97,-23.04 -18.82,-3.13 -71.64,-8.62 -39.82,-24.92 5.17,-2.67 17.24,-3.93 29.47,-5.18 -2.98,-10.03 -5.02,-16.93 -7.06,-18.81 -10.97,-9.71 22.26,-19.75 13.95,-28.21 -13.16,-13.49 -38.56,-5.64 -49.68,-21.32 -10.51,-15.2 25.86,-35.11 12.53,-49.53 -7.52,-8.15 -47.17,-23.67 -47.65,-24.76 -2.5,-6.59 23.36,-0.95 8.47,-7.05 -49.06,-20.07 -22.26,-21.17 -43.89,-21.17 -1.72,0 -83.7,-8.78 -95.77,-5.02 l 5.33,9.72 317.56,628.55 55.96,3.76 c -2.66,-3.76 -6.43,-8.77 -11.28,-15.04 -10.35,-12.86 11.6,-5.34 5.02,-24.77 -18.66,-54.71 -74.78,-66.78 -58.16,-84.65 1.1,-1.4 20.06,-14.72 11.76,-24.92 -32.29,-39.34 -67.87,-26.95 -31.04,-45.93 15.83,-8.14 -12.85,-13.16 -20.22,-17.7 -27.27,-16.94 -13.32,-4.4 -1.09,-17.72 12.85,-13.79 -16.62,-27.59 -22.27,-31.81 -30.24,-22.74 -2.34,-15.52 5.65,-17.72 18.34,-4.71 -6.74,-15.2 -17.09,-21.16 -21.63,-12.38 12.54,-10.19 16.78,-17.72 1.41,-2.65 1.41,-15.67 -2.04,-32.44 z m 324.61,217.72 c 15.84,-1.56 45.78,0.15 59.88,-0.94 18.65,-1.57 -17.24,-17.56 -20.37,-18.5 -23.67,-8.46 -53.14,-1.09 -75.71,-18.65 -25.87,-19.9 99.06,1.73 114.11,1.41 28.53,-0.94 19.43,-11.91 -3.92,-16.61 -47.81,-9.41 -147.18,-15.05 -50,-14.43 49.06,0.33 45.77,-6.74 26.49,-14.72 43.42,-8.78 67.87,-21.48 33.23,-46.71 -26.81,-19.45 -65.52,-12.54 -132.76,-16 -9.41,-2.34 -14.58,-3.76 -12.23,-4.07 24.92,-3.14 197.18,-5.02 97.65,-26.02 -27.27,-5.64 -58.93,-8.15 -86.37,-16.46 76.34,-8.46 188.57,-3.61 192.02,-5.8 5.01,-3.61 24.76,-20.69 -10.51,-19.44 -68.65,2.51 -130.25,-37.93 -170.53,-38.86 4.85,-6.12 16.46,-12.71 36.52,-19.45 21.94,-7.36 -53.45,-29.93 -70.22,-36.99 -79.63,-34.01 5.95,-20.68 44.51,-14.88 58.62,8.92 35.11,-17.4 -11.76,-19.76 -58.46,-2.82 -86.99,-11.91 -70.53,-18.65 58.15,-5.96 177.91,-8.15 181.51,-11.91 9.88,-10.97 -130.57,-25.55 -214.58,-34.49 2.19,-3.6 7.21,-7.52 16.14,-11.6 8.78,-4.07 -29.62,-20.99 -40.75,-25.08 2.66,-0.93 1.09,-2.18 -8.62,-4.38 -4.86,-0.94 -9.09,-2.04 -12.54,-2.98 -13.8,-8.78 67.08,-2.98 16.3,-13.63 76.96,-5.96 274.77,-0.32 278.69,-0.32 46.71,0 -11.91,1.1 79.47,19.91 27.59,5.64 -24.14,0.47 -23.67,6.58 0.16,1.09 74.46,15.52 84.8,23.04 18.18,13.48 -75.23,31.98 -63.48,46.24 12.22,14.58 73.2,7.37 91.7,19.75 0.62,0.47 0.93,1.25 1.09,2.36 -44.04,-0.64 -94.35,4.38 -100.94,13.79 -9.56,13.78 22.57,21 29.62,22.25 18.34,2.98 39.04,0.31 58.78,-0.15 -1.57,3.29 -3.13,6.73 -4.86,10.18 -27.27,-2.34 -56.42,-7.83 -79.78,-2.66 -18.18,4.08 -0.63,14.11 7.37,14.89 18.81,1.73 42.16,2.66 63.17,6.9 -5.02,10.34 -8.78,12.06 -13.17,21.79 -10.81,0.78 -58.78,-4.24 -77.75,-3.29 -11.44,0.62 1.1,7.52 0.48,7.83 -6.12,5.49 57.05,13.64 71.63,14.27 -1.26,2.82 -2.35,5.48 -3.29,8.14 l -0.32,-0.15 c -11.91,-1.25 -60.66,9.24 -33.39,26.02 2.51,1.56 22.73,0 26.03,0 h 3.76 c 0.15,0.31 0.47,0.47 0.78,0.63 4.86,2.66 16.46,7.2 29.63,12.54 -2.83,1.25 -5.49,3.13 -8.31,5.33 -30.1,23.82 -6.9,22.25 22.26,14.89 6.73,-1.73 15.51,-2.67 25.23,-3.3 13.17,6.9 20.69,13.17 13.17,16.62 -14.74,7.21 -86.68,5.01 -49.22,16.61 17.87,5.65 64.42,15.36 21.32,19.76 -18.81,1.87 -127.28,-10.98 -78.38,10.34 9.1,3.92 116,22.88 77.91,35.73 -4.55,1.57 -27.28,-1.09 -31.35,-1.25 -42.63,-1.09 -21,3.45 20.85,17.87 12.54,4.39 71,8.94 30.72,16.46 -31.2,5.8 -78.84,-1.1 -101.26,0.15 -22.57,1.42 -19.91,10.98 -4.86,15.05 15.68,4.39 124.62,15.05 139.35,27.75 10.81,9.24 -40.29,21.78 -43.89,23.03 -49.06,16.94 63.48,28.07 63.48,79.32 0,5.8 -51.25,-0.94 -79.78,-1.56 -9.56,-0.31 -8.94,4.38 -13.17,4.7 -21.95,1.41 14.42,8.31 23.98,10.02 73.21,12.23 11.6,16 56.75,41.08 l -301.43,-25.4 c -2.03,-2.98 30.1,-10.66 25.71,-16.77 -4.23,-6.11 -45.14,-10.82 -49.69,-17.71 -5.48,-8.15 106.75,4.86 108.31,-2.19 1.73,-7.06 -106.27,-34.81 -94.67,-36.84 35.11,-6.11 222.42,36.84 230.1,1.72 1.88,-8.14 -211.29,-39.33 -256.44,-52.35 z m 1111.17,205.96 c -80.57,5.34 -151.58,33.55 -221.63,51.73 68.8,130.73 229.16,567.57 280.72,620.24 51.73,52.51 138.88,116.77 291.71,203.92 152.82,87.31 381.35,392.49 507.85,480.27 126.34,87.94 406.75,611.54 482.46,781.37 75.7,169.99 141.23,292.49 173.67,359.5 32.61,67 74.77,127.04 113.49,151.18 l 1.72,-2.04 c 36.52,22.88 67.09,40.2 106.28,76.49 39.02,36.21 28.99,22.41 39.64,42.72 20.23,41.61 55.34,102.51 76.34,129.23 21.16,26.8 22.41,29 31.51,41.54 5.48,16.46 23.98,21.47 42.16,50.47 18.19,28.92 22.89,59.48 27.59,69.99 6.58,14.57 35.11,1.88 54.54,34.01 30.26,49.77 20.38,57.29 28.69,71.32 8.46,14.18 26.8,-2.2 42.01,20.76 21.31,32.14 18.18,41.23 21.16,40.45 48.12,67.08 83.07,103.06 77.59,198.36 -5.65,95.3 -105.49,155.33 -150.78,199.77 -10.98,23.43 -140.3,124.14 -173.37,131.35 l -33.38,2.51 c 0,0 -46.4,0.24 -58.31,1.64 -12.07,1.42 -11.92,-0.47 -13.17,12.94 -1.1,13.4 2.97,19.04 -19.6,53.21 -24.45,36.76 -59.56,45.22 -83.85,62 -4.7,3.29 -16.62,-12.39 -16.93,-11.29 -6.75,0.62 3.29,2.82 -24.92,-0.32 -28.22,-3.13 -8.78,-0.94 -13.33,-1.41 4.55,0.47 -14.89,-1.72 13.33,1.41 28.21,3.14 18.17,0.94 24.92,0.32 0.31,-1.1 14.42,15.75 16.93,11.29 2.51,-4.4 -0.94,6.27 0.93,3.05 0,30.64 5.65,38.32 6.43,68.26 24.3,26.96 49.53,54.39 74.77,81.2 25.39,26.8 50.16,52.35 75.24,77.51 35.42,3.13 67.87,5.64 107.68,8.07 39.82,2.51 85.75,4.7 127.75,5.95 29.78,-29.54 61.6,-62.3 89.19,-91.53 27.74,-29.32 50.47,-54.24 74.76,-81.2 0.94,-35.43 1.25,-71.4 1.25,-107.68 0,-36.37 -0.31,-72.26 -1.4,-107.69 -24.14,-27.03 -50.78,-56.03 -74.61,-81.19 -23.83,-25.23 -44.05,-46.16 -66.14,-68.42 26.48,-22.33 57.36,-48.36 80.87,-79.62 15.99,1.88 31.98,3.83 47.81,5.95 -3.29,-39.19 -7.21,-77.35 -11.6,-114.34 0.15,-24.38 -2.82,-44.68 -7.99,-62.78 -3.61,-24.77 -7.22,-49.06 -11.29,-72.57 -5.8,4.31 -11.6,8.77 -17.4,13.24 -11.75,-18.1 -25.86,-36.44 -41.38,-57.99 -0.31,0.23 -1.1,0.08 -2.2,-0.47 15.69,-11.37 31.19,-22.42 46.56,-33.08 -50.47,-249.06 -155.03,-409.18 -217.25,-409.18 -62.07,0 -70.38,26.81 -101.89,75.39 -11.59,-18.33 -22.25,-37.53 -32.13,-56.26 41.38,-53.53 53.61,-83.08 134.02,-83.08 80.41,0 214.43,168.73 279.64,431.52 215.51,-137.86 396.09,-191.7 483.24,-129.08 6.11,-1.57 -5.65,-2.43 19.28,-2.43 24.76,0 78.05,41.06 78.05,78.06 0,36.91 -18.01,57.52 -44.04,70.14 -5.96,108.47 -66.61,259.42 -170.07,428.85 296.41,82.22 487.17,207.46 479.8,324.7 -7.21,117.33 -178.85,201.81 -441.56,250.64 130.74,233 172.11,422.42 90.45,499.62 -81.82,77.28 -269.28,25 -495.15,-119.44 -5.34,21.95 -10.98,43.26 -16.94,63.8 13.17,14.02 21.48,23.82 21.48,53.76 0,29.94 -28.84,71.32 -66.14,77.12 -60.36,148.43 -120.07,236.84 -217.89,236.84 -97.8,0 -214.58,-168.66 -279.78,-431.52 -225.71,144.44 -409.42,200.24 -494.84,119.44 -85.59,-80.72 -31.82,-302.36 128.52,-564.98 -296.4,-82.14 -486.06,-223.13 -479.79,-324.7 6.27,-101.5 95.3,-149.62 243.42,-200.17 7.37,-35.5 46.24,-62.15 76.34,-62.15 30.09,0 42.95,9.65 57.21,25 14.73,-3.37 29.78,-6.5 45.15,-9.56 6.26,7.84 10.34,11.76 20.05,25.55 9.72,13.72 19.28,24.85 25.39,36.84 -24.28,3.6 -47.95,7.52 -70.68,11.75 -5.49,37.63 -44.52,66.46 -77.12,66.46 -32.61,0 -49.22,-12.85 -63.33,-32.52 -118.34,36.76 -188.09,66.69 -192.79,142.79 -4.71,76.02 175.71,190.21 456.6,257.07 40.44,-61.68 86.04,-125.32 136.37,-189.74 1.87,0.94 -2.2,-0.95 5.8,2.98 7.99,3.91 36.51,10.34 62.54,13.08 -26.03,-2.74 -42.17,-3.13 -62.54,-13.08 -20.38,-10.04 -24.46,-20.38 -58.95,-41.46 -34.32,-21.09 -117.56,-148.83 -124.92,-184.57 -7.52,-35.66 -17.25,-42.56 -36.37,-69.6 -19.12,-27.11 -24.29,-24.37 -55.95,-83.7 -14.1,-26.8 -85.58,-228.53 -89.35,-281.51 -3.76,-53.06 -4.38,-70.85 -5.63,-100.08 l -3.3,3.37 c -0.94,-19.68 -0.94,-23.59 -2.04,-57.45 -1.1,-33.86 -1.88,-59.4 -1.88,-59.4 0,0 -162.7,-189.12 -213.96,-272.9 -51.26,-83.7 -128.53,-147.1 -236.52,-373.92 -107.84,-226.72 -58.94,-298.59 -71.33,-366.39 -12.21,-67.79 -44.67,-177.35 -172.72,-335.51 -128.07,-158.23 -203.46,-315.37 -271.96,-353.46 -68.65,-38.09 -157.99,-84.95 -231.2,-84.95 -73.2,0 -102.51,2.98 -98.9,23.51 3.6,20.37 70.69,196.16 48.44,328.06 -22.1,131.83 -161.77,161.14 -270.39,155.18 -108.47,-5.8 -239.98,-84.87 -232.93,-234.33 6.9,-149.38 40.29,-207.84 51.26,-231.36 10.97,-23.5 16.3,-38.08 -1.57,-46.86 -17.86,-8.78 -124.76,-52.83 -210.82,5.8 -85.9,58.62 -183.55,82.14 -238.72,228.53 -55.17,146.24 -356.44,553.62 -441.86,626.51 -85.43,72.89 -102.99,63.4 -102.99,63.4 0,0 2.98,195.54 -181.35,371.02 -184.17,175.63 -203.46,215.6 -278.38,290.68 -74.92,75.08 -83.54,78.29 -84.64,110.58 -1.1,32.22 -26.96,196.95 -52.98,306.05 -26.18,109.1 -115.21,193.27 -131.67,214.19 -16.3,20.93 -49.68,94.91 -90.44,151.58 -40.75,56.73 -43.89,52.27 -76.49,75.23 -32.45,22.89 -80.57,43.11 -114.89,23.2 -34.33,-19.91 -36.21,-28.45 -65.52,-42.63 -29.16,-14.27 -51.57,-24.77 -94.37,-18.58 -33.85,4.86 -63.32,38.24 -93.1,64.74 -0.47,8.46 -12.38,3.45 1.57,14.57 13.95,11.13 54.7,49.14 88.87,73.99 34.17,24.92 41.38,32.29 67.09,41.85 25.71,9.48 -11.6,50.62 8.93,50.08 20.54,-0.47 68.19,-48.36 100.95,-28.84 32.76,19.51 60.03,74.69 -41.7,144.59 -101.57,69.91 -227.9,87.47 -348.6,58.31 -120.53,-28.99 -269.76,-99.53 -329.16,-228.92 -72.26,-157.14 -35.27,-199.62 -12.23,-207.93 22.89,-8.3 43.11,-15.67 45.77,31.12 2.66,46.87 47.02,151.41 138.09,213.41 91.07,61.99 193.74,91.93 266.16,90.12 72.57,-1.79 145.3,-24.13 143.73,-50.39 -1.41,-26.33 -82.76,-1.1 -147.5,-16.93 -64.73,-15.67 -215.05,-70.61 -253.45,-136.92 -38.25,-66.29 -32.13,-90.44 -32.13,-90.44 0,0 -43.89,-48.67 -84.49,-91.61 -40.6,-42.95 -20.06,-56.74 -66.46,-46.79 -46.24,9.87 -54.86,-6.82 -68.34,-90.6 -13.64,-83.86 -17.4,-116.78 -39.19,-86.91 -21.78,29.85 -95.14,122.88 -106.27,245.85 -11.13,122.96 52.04,303.22 109.1,378.07 57.05,74.92 232.76,263.88 467.25,267.17 222.89,3.21 308.79,-41.46 370.86,-75.32 62.23,-33.85 184.18,-136.6 173.52,-270.23 -10.66,-133.62 -28.85,-180.17 10.66,-207.53 39.49,-27.34 52.19,1.34 64.88,36.29 12.55,35.03 78.53,175.87 -8.61,328.15 -110.67,193.5 -263.33,235.82 -340.92,255.26 -77.59,19.43 -165.21,33.15 -165.21,33.15 0,0 -10.97,117.55 -35.9,144.52 -24.92,26.96 -48.28,27.59 -48.28,27.59 0,0 -66.77,168.65 -119.43,219.75 -52.98,51.1 -141.54,91.38 -217.72,93.26 -76.18,1.88 -137.94,-29.7 -80.88,-29.62 57.05,0.08 147.65,-86.29 157.53,-118.74 9.87,-32.44 -10.82,-37.85 -14.74,-55.33 -4.07,-17.47 -33.7,-22.57 -41.22,-1.88 -7.68,20.61 -37.15,68.26 -130.57,76.49 -93.42,8.16 -114.9,-8.93 -114.9,-8.93 0,0 -42.94,18.65 -3.76,38.25 39.35,19.51 5.02,83.15 -77.74,70.53 -82.76,-12.62 -13.01,-41.85 -59.1,-29 -46.24,12.93 -165.83,-17 -127.9,-19.98 37.93,-2.9 52.66,-13.33 66.15,-34.17 13.48,-20.77 54.54,-21.87 68.34,-36.84 13.79,-14.97 21.47,-59.25 53.6,-62.93 31.98,-3.77 68.81,24.61 102.05,-8.46 33.38,-33 96.39,-58.08 69.28,-72.03 -27.12,-13.95 -73.52,-4 -92.95,14.03 -19.6,18.1 -94.52,40.44 -141.39,41.62 -46.86,1.17 -100.47,-41.93 -134.17,-17.71 -33.86,24.37 -80.41,100.62 -80.41,100.62 0,0 -12.22,-29.62 5.64,-76.96 17.87,-47.26 -7.84,-53.37 -8.93,-73.83 -1.25,-20.45 33.38,-30.17 33.38,-30.17 0,0 -1.72,-32.13 14.74,-50.16 16.61,-17.94 3.6,-41.07 3.6,-41.07 0,0 -9.4,-61.36 -10.97,-90.59 -1.72,-29.24 19.75,-64.97 19.75,-64.97 0,0 32.45,2.11 33.86,28.44 1.41,26.42 10.81,87.63 10.81,87.63 0,0 33.39,19.75 38.87,-39.03 5.49,-58.7 -25.39,-84.33 -40.9,-101.5 -15.68,-17.24 -115.68,-73.35 -115.37,-173.04 0.16,-99.61 23.2,-211.53 82.45,-254.01 59.09,-42.48 153.45,32.76 144.67,-21.32 -8.93,-54.07 -17.86,-107.13 -3.76,-193.11 14.11,-86.12 67.72,-213.32 114.11,-275.94 46.25,-62.7 82.45,-74.77 134.49,-87.78 52.04,-13.01 83.23,18.49 83.23,18.49 0,0 16.3,-25 48.28,-61.75 19.28,-22.1 59.25,-48.36 63.95,-75.87 16.46,-96.08 124.62,-111.99 144.67,-196.16 19.6,-82.06 129.63,-198.05 176.03,-242.88 46.4,-44.91 87.47,-72.1 131.35,-178.69 43.74,-106.58 245.47,-360.67 401.9,-526.5 156.43,-165.92 327.28,-397.43 458,-505.27 130.73,-107.76 521.34,-390.69 656.29,-475.8 135.12,-84.96 424,-236.68 445.63,-292.17 21.63,-55.8 176.97,-497.83 184.33,-520.08 7.37,-22.26 10.82,-28.84 17.87,-44.51 -63.32,-19.91 -99.53,-46.24 -211.29,-54.55 -43.1,-3.29 -453.78,-18.03 -493.12,-22.88 -34.48,-4.4 -104.08,-11.92 -102.35,-11.92 3.13,0 -416,-753.79 -442.49,-791.25 -26.65,-37.3 -43.89,-87.77 58.62,-90.59 102.35,-2.98 1190.16,-5.8 1190.16,-5.8 0,0 61.76,-84.17 193.43,-84.81 131.66,-0.62 184.95,84.81 205.02,84.81 h 1163.05 c 0,0 112.07,-2.98 119.59,47.33 7.53,50.31 -92.01,175.4 -92.01,175.4 l -369.45,663.96 c -33.86,0 -49.22,3.62 -95.61,5.18 -39.5,1.42 -445.47,18.34 -525.88,23.98 z m -279.32,-598.14 -6.74,8.31 c 0,0 0,148.59 0,166.47 0,18.02 14.26,39.34 14.26,39.34 0,0 6.44,5.01 12.55,14.42 l -33.08,56.43 c 0,0 47.02,2.82 3.76,26.33 -43.1,23.36 -10.03,52.66 -10.03,52.66 0,0 7.21,6.43 12.07,15.05 -5.49,13.64 -10.5,26.34 -14.26,36.68 -31.35,14.58 -37.31,1.41 -45.31,18.5 -8.14,17.24 -30.4,58.62 -23.82,79.31 6.43,20.38 68.97,143.42 84.64,175.71 15.68,32.14 236.21,586.7 266.94,633.56 30.88,46.87 227.91,164.11 263.65,181.67 35.73,17.55 480.58,468.43 516.63,497.75 36.2,29.23 336.05,528.62 380.11,596.64 75.08,115.53 215.51,331.6 240.91,471.73 26.02,143.97 45.3,177.75 12.53,202.9 -20.99,16.23 -49.36,-21.55 -92.62,-24.29 -43.26,-2.74 -84.34,-18.89 -100.64,-21.63 -16.3,-2.67 -10.65,2.74 6.27,27.04 16.93,24.37 33.7,40.51 18.5,72.96 -15.21,32.37 -14.58,48.59 -24.3,86.37 -9.56,37.85 -3.13,67.55 22.26,102.66 25.39,35.11 41.38,29.71 40.44,0 -0.78,-29.7 33.85,-43.18 47.5,-40.52 13.47,2.75 46.08,5.41 54.54,21.64 8.62,16.22 28.05,32.44 27.27,5.41 -0.93,-26.97 7.22,-27.05 7.22,-27.05 0,0 18.97,-39.65 30.56,-56.66 11.6,-17.08 63.64,-40.67 121.64,-12.85 0.78,-1.25 1.4,-2.51 2.03,-3.76 13.8,6.89 -1.41,-12.46 41.54,30.64 42.95,43.11 94.04,134.41 66.77,204.08 -10.19,26.18 -29.31,14.81 -43.42,15.68 -23.35,1.49 -42.63,-0.24 -52.98,-10.27 -16.61,-16.06 -29.93,-13.4 -51.4,-16.06 -21.48,-2.67 -19.92,-2.67 -19.92,-2.67 -2.82,-1.57 -9.24,18.11 -99.84,-9.48 -74.61,-25.79 -144.99,-34.17 -194.21,-22.34 10.98,-35.58 20.07,-64.19 -21.79,-64.19 -41.68,0.08 -79.62,-40.44 -80.41,-64.81 -0.62,-24.3 -219.91,-246.4 -321.32,-434.73 -101.58,-188.25 -91.69,-207.92 -106.9,-319.29 -15.2,-111.29 91.22,-146.4 91.22,-146.4 0,0 -140.91,-231.28 -228.85,-322.11 -87.77,-90.76 -168.02,-216.78 -250.16,-316.31 -82.29,-99.7 -188.57,-213.8 -332.45,-225.56 -143.9,-11.75 -210.35,17.55 -248.13,26.33 -37.78,8.78 -57.06,49.85 -47.34,76.18 9.56,26.33 86.52,140.6 90.92,187.47 4.38,46.87 34.48,167.01 -70.07,193.35 -104.71,26.41 -243.42,-8.78 -244.37,-131.83 -0.93,-123.12 33.55,-143.5 44.21,-175.79 10.66,-32.29 26.33,-90.75 1.25,-143.58 -25.08,-52.66 -21.95,-43.88 -72.1,-58.62 -50.32,-14.58 -147.81,-40.91 -246.09,0 -98.28,41.07 -325.41,196.56 -406.44,392.65 -81.19,196.16 -290.13,464.12 -360.83,511.22 -70.53,47.1 -97.02,66.62 -97.02,66.62 0,0 47.65,147.1 -175.72,400.56 -223.51,253.54 -253.14,263.49 -263.79,281.27 -4.71,7.77 -38.25,25.01 -65.84,58.16 -23.04,27.59 -56.43,110.82 -45.92,72.34 8.93,-32.76 38.87,-167.01 53.6,-213.72 32.45,-104.4 142.48,-425.25 37.31,-496.02 -113.02,-76.18 -351.89,250.79 -385.44,302.12 -44.98,68.97 -65.05,75.55 -110.5,145.78 -24.14,37.38 -90.13,117.63 -105.02,137.07 -7.21,9.48 26.8,-112.15 41.22,-154.48 18.03,-53.36 29.47,-92.08 51.42,-116.77 22.09,-24.76 60.19,-92.09 107.21,-195.85 46.86,-103.69 249.06,-314.67 405.97,-444.76 157.05,-130.18 259.25,-266.39 390.92,-382.85 131.66,-116.46 684.35,-519.77 790.62,-581.21 106.43,-61.45 242.01,-131.83 255.49,-166.93 13.48,-35.28 136.84,-460.83 203.3,-580.9 66.46,-120.23 96.87,-181.67 95.78,-210.82 -0.79,-29.48 -22.74,-70.54 -58.32,-88.1 -35.74,-17.55 -36.36,-35.11 -36.36,-35.11 0,0 67.24,-2.82 34.48,-20.38 -32.76,-17.7 -41.22,-8.92 -39.03,-29.46 2.35,-20.38 -26.49,-35.43 -36.52,-46.71 -10.19,-11.44 -3.6,-4.55 -4.7,-6.74 -0.63,-9.09 0.63,-17.09 2.82,-24.14 5.96,-7.53 9.72,-11.76 26.65,-16.14 17.08,-4.24 49.21,-20.38 54.23,-46.71 5.02,-26.34 7.52,-157.37 3.76,-180.89 -3.6,-23.51 34.02,-43.88 35.27,-2.98 1.25,41.07 1.25,390.3 1.25,390.3 l 74.61,-1.41 v -391.71 c 0,0 32.45,-23.5 58.31,-11.76 25.71,11.76 21.63,11.14 27.59,15.99 z M 7273.9,6762.15 c -5.64,1.41 5.32,-2.19 -22.73,14.58 -27.9,16.85 -48.9,28.76 -74.77,48.28 l -1.25,0.93 c -5.33,3.92 2.2,-0.7 -15.83,11.05 -18.03,11.84 -42.79,25.63 -62.86,19.75 -20.06,-5.87 -31.19,-24.37 -18.65,-37.85 5.64,-6.11 -1.41,-11.6 5.17,-16.3 17.56,-12.38 38.25,-30.72 60.51,-45.69 -7.06,-4.78 -13.17,-9.09 -13.33,-10.19 8.31,0.39 16.47,1.33 24.3,2.82 19.28,-12.93 27.43,-18.57 47.18,-30.02 19.91,-11.52 42.32,-54.31 60.97,-56.97 9.41,-1.41 14.27,-10.5 24.46,-9.8 10.18,0.71 25.54,11.29 28.21,12.7 11.76,5.87 19.74,53.76 26.8,61.6 5.01,7.13 25.24,7.21 51.1,28.06 5.96,4.86 17.71,36.28 6.42,43.65 12.07,-3.45 29.16,-4.08 35.59,4.94 5.18,7.13 35.11,27.82 58.62,54.86 13.17,15.04 12.54,57.53 12.54,57.53 0,0 -38.24,46.7 -63.01,60.34 -4.86,2.74 -13.64,19.59 -28.84,31.74 -19.75,15.6 -47.96,29.47 -73.2,52.82 -13.01,12.07 -36.68,36.29 -61.92,56.67 -28.53,23.27 -60.34,35.73 -71.79,35.73 -20.52,0 -37.46,-51.09 -13.63,-79.54 23.67,-28.45 79.79,-65.13 105.49,-85.04 25.7,-19.82 45.14,-28.53 64.58,-50.7 19.59,-22.18 71,9.64 82.13,-15.13 10.97,-24.77 -63.79,-54.23 -86.53,-63.25 -8.77,8.23 -17.86,15.52 -25.7,19.44 -8.62,4.23 -32.28,9.01 -60.98,34.33 -20.99,18.49 -33.06,30.33 -56.58,48.75 -17.56,13.71 -29.78,19.59 -43.26,30.17 -27.12,21.63 -36.52,39.89 -56.43,41.46 -20.38,1.49 -50.78,-46.79 -27.11,-75.16 13.48,-16.15 17.71,-25 37.46,-41.85 -2.03,-1.65 25.71,-17.87 38.25,-33 20.84,-25.47 94.51,-71.08 109.09,-85.42 3.6,-3.53 26.96,-1.81 27.59,-14.5 0.47,-8.78 -11.6,-16.15 -14.58,-19.12 -4.23,-4.08 -7.68,-4.08 -13.48,-2.67 z m -255.65,8.23 c -0.16,-13.71 -19.59,-8.15 -19.59,-21.87 -139.5,-78.84 -283.87,-88.56 -316.47,-67.63 2.35,25.78 10.34,63.4 29.93,118.34 38.72,108.94 9.1,86.21 57.85,209.25 11.6,29.47 76.17,81.04 95.45,132.22 19.28,51.18 37.47,142.48 99.07,184.88 46.71,22.57 122.72,93.81 122.72,93.81 1.26,0.16 74.78,-32.6 45.77,-93.89 -26.79,-56.5 -75.23,-154.24 -104.07,-182.22 -35.58,-53.68 -50.01,14.66 -20.22,-89.97 8.78,-30.72 0.62,-84.95 -16.3,-111.76 -16.94,-26.8 -25.87,-59.71 -23.83,-74.53 2.04,-14.89 -6.43,-60.19 20.69,-77.9 17.71,-11.68 24.3,-8 29,-18.73 z m -4523.5,-168.11 c 5.33,-17.24 30.25,-40.2 29.94,-56.27 -0.31,-15.91 -3.29,-34.09 5.64,-49.06 20.22,-34.01 42.79,-82.69 82.29,-83.55 35.58,-0.78 53.29,14.11 27.43,50.63 -41.38,58.47 -37.3,46.4 -55.17,69.75 -10.03,13.09 -23.04,26.81 -34.64,42.95 3.92,2.35 -2.04,-6.04 12.23,10.58 14.26,16.62 72.41,32.21 106.27,38.17 -3.3,-14.89 -11.6,-47.89 18.18,-79.16 29.62,-31.27 43.57,-59.87 65.05,-87.62 21.63,-27.74 36.52,-53.21 54.54,-77.04 18.19,-23.74 17.72,-23.59 39.51,-51.33 21.78,-27.67 190.91,-238.96 232.6,-257.54 41.7,-18.41 -95.14,145.39 -85.89,170.39 9.25,25 -34.64,39.73 -8.62,89.65 12.22,23.05 33.54,58.08 58.78,74.31 30.41,19.66 77.9,32.91 99.37,6.42 14.58,-17.87 -0.94,-50.24 7.68,-69.91 8.62,-19.59 25.71,-29.23 29,-40.99 3.29,-11.67 -1.72,-30.95 -24.14,-13.01 -22.26,18.11 -56.27,-33.54 -55.64,-56.89 0.63,-23.36 14.73,-48.91 36.36,-43.66 21.79,5.33 23.99,9.09 45.3,8.62 21.32,-0.55 27.43,-29.86 40.91,-32.13 13.48,-2.27 13.17,24.45 13.17,24.45 0,0 -29,94.83 -40.91,134.88 -11.91,40.05 -31.82,102.59 -40.13,135.35 -8.31,32.68 -37.78,106.04 -47.49,146.87 -9.88,40.91 -84.65,9.25 -89.5,-8.15 -4.86,-17.4 -0.47,-29.78 29.31,-20.77 29.62,9.01 32.92,-37.93 36.05,-51.57 3.14,-13.71 23.98,-41.61 -10.98,-44.28 -24.92,-1.8 -29.3,-2.04 -84.79,-40.83 -45.15,-31.51 -43.26,-76.65 -53.61,-88.01 -10.35,-11.45 -79,48.59 -89.03,76.02 -10.19,27.43 -32.6,43.57 -11.75,68.34 20.84,24.68 90.43,54.23 78.05,75.94 -5.48,9.48 -9.71,20.54 -30.25,15.44 -20.85,-5.17 -51.1,-13.56 -51.1,-13.56 0,0 8.78,-54.7 -36.52,-30.25 -45.3,24.38 -55.96,57.6 -57.05,73.2 -0.94,15.52 -4.08,29.23 -4.08,29.23 l -6.58,-5.09 c 1.09,8.15 21,4.55 45.92,30.25 26.34,27.27 0.47,69.05 -16.14,67.95 -29.47,-1.96 -106.12,-16.22 -134.02,-22.41 -27.9,-6.27 -59.56,-28.93 -59.56,-28.93 0,0 -48.9,52.91 -22.88,62.47 31.66,11.6 110.66,27.11 125.7,35.03 31.66,16.54 51.42,32.37 55.18,65.68 3.6,33.15 0,58.54 -48.28,46.47 -48.12,-12.07 -102.35,-30.64 -104.23,-30.33 -1.73,0.24 -20.22,-0.39 -35.59,-10.03 -22.25,-14.18 -18.96,-22.49 -37.14,0.55 -2.67,3.45 -16.31,1.64 -38.72,-2.04 -12.23,-1.88 -47.18,-14.1 -55.33,-21.63 0,0 -49.22,35.58 -6.9,62.31 42.17,26.64 83.39,39.1 115.68,37.77 32.29,-1.33 115.05,9.57 105.96,65.21 -8.94,55.72 -16.3,54.62 -51.26,44.91 -34.95,-9.65 -65.83,-25.95 -103.92,-31.98 -38.24,-5.96 -97.65,-8.31 -97.65,-8.31 0,0 -41.38,6.04 -57.05,30.64 -5.34,8.47 -19.29,34.8 -14.58,45.38 9.09,20.38 90.12,56.12 89.65,56.12 -0.46,0 21.17,-34.49 52.67,-40.6 31.35,-6.03 46.71,-11.91 71.48,11.75 24.76,23.6 14.89,32.06 10.19,52.98 -4.71,20.85 -28.53,40.92 -28.53,40.92 0,0 -60.19,-10.58 -77.43,-3.29 -17.09,7.36 -23.67,-11.52 -23.67,-11.52 0,0 -41.07,-10.27 -58.78,-27.12 -17.71,-16.93 -95.93,-125.95 -99.69,-143.19 -3.92,-17.24 6.11,-65.13 6.11,-65.13 0,0 5.02,-46.63 8.31,-50.15 3.45,-3.53 58.47,-55.57 92.64,-77.2 34.01,-21.63 53.92,-63.72 60.19,-84.72 6.42,-20.93 9.87,-51.49 24.29,-71.87 14.42,-20.3 62.07,-48.75 77.59,-66.46 z m 366,556.29 c 29.46,10.03 71.95,34.48 79.47,-7.92 7.52,-42.4 61.13,-32.37 106.11,-118.42 44.99,-86.13 46.24,-92.95 27.59,-110.11 -18.5,-17.09 -11.75,27.66 -33.54,57.45 -21.79,29.86 -49.54,108.39 -48.59,107.52 0.78,-0.86 -64.43,-28.06 -68.81,-70.14 -4.55,-42.09 23.98,-104.39 1.57,-138.96 -22.58,-34.63 94.83,-60.89 50.62,-54.07 -44.04,6.89 -112.07,0.54 -172.88,-25.87 l 8.3,35.19 c 1.1,4.71 -33.08,105.02 -60.35,118.19 -27.27,13.17 -34.48,15.59 -36.68,18.57 -4.54,6.27 -2.82,22.03 -5.48,39.11 -2.35,15.13 -0.79,36.92 -21.95,61.29 -16.76,19.36 -50.78,38.24 -87.15,37.85 -19.27,-0.23 17.09,24.14 -13.16,72.73 -23.04,36.76 -72.26,19.75 -43.26,35.35 9.72,5.17 41.69,18.42 86.68,-14.11 37.93,-27.58 80.09,-36.44 79,-72.41 -1.73,-58.78 44.04,-125.95 83.85,-113.96 39.98,11.92 56.59,-69.2 66.46,-32.29 9.88,37.15 -39.5,160.74 2.2,175.01 z m -976.83,901.91 c 0,0 -15.05,-33.39 -16.31,-55.96 -1.41,-22.49 -9.09,-59.88 -21,-70.85 -11.91,-10.97 0.47,-123.99 -16.46,-157.37 -16.93,-33.31 -56.11,-96.24 -52.98,-141.39 2.98,-45.14 4.86,-77.12 4.08,-92.16 -0.79,-14.97 18.18,-11.68 41.69,4.62 23.35,16.38 25.39,18.19 44.52,23.36 19.12,5.09 3.44,28.06 29.78,29.31 26.49,1.17 50.47,-6.9 57.36,-16.46 7.06,-9.56 -0.46,24.45 24.93,42.56 25.55,18.18 43.26,66.54 26.33,98.91 -16.92,32.36 -27.43,45.68 -34.95,79.7 -7.53,34.01 -9.09,105.41 -14.58,141.23 -5.49,35.81 -13.63,24.76 -12.22,49.13 1.41,24.38 1.41,26.26 1.41,26.26 0,0 -16.62,-29.63 -32.45,-8.62 -15.67,21.08 -26.02,36.36 -26.02,36.36 l -12.38,15.36 z m 555.97,-4.39 c 0,0 14.58,57.84 13.64,74.77 -0.95,16.92 -19.44,21.16 -19.44,21.16 0,0 -20.38,4.23 -42.48,-21.48 -22.25,-25.7 -43.26,-32.76 -43.26,-32.76 0,0 3.29,24.37 -18.97,28.69 -22.41,4.31 -11.91,-10.98 -20.37,-27.75 -8.47,-16.61 -28.69,-40.52 -33.23,-87.38 -4.55,-46.87 11.75,-90.45 5.48,-103.45 -6.42,-12.94 -26.8,-40.6 -47.18,-36.37 -20.53,4.23 -19.75,17.4 -16.77,38.01 3.13,20.53 -10.34,47.18 -34.01,60.9 -23.67,13.71 -24.77,26.96 -47.34,29.31 -22.26,2.43 -68.66,14.81 -70.07,-11.36 -1.56,-26.26 34.18,-60.98 19.13,-94.36 -15.05,-33.47 -23.67,-117.8 -24.45,-132.77 -0.95,-14.97 31.03,-13.87 43.1,-1.1 12.07,12.86 23.67,18.19 23.67,18.19 0,0 -34.64,51.64 -6.74,80.96 27.9,29.38 88.4,33.46 66.46,13.4 -21.63,-20.14 -82.45,-97.5 -5.33,-61.84 77.12,35.66 211.29,86.84 277.28,86.99 65.83,0.24 77.28,33.78 56.9,38.09 -20.53,4.24 -85.58,15.21 -85.58,15.21 0,0 -39.97,25.39 -5.02,45.22 34.95,19.75 59.25,17.32 39.66,36.6 -19.59,19.28 -25.08,23.12 -25.08,23.12 z m -93.26,-54 c -5.96,-5.49 -13.17,-35.35 -12.54,-56.03 0.78,-20.7 6.42,-52.75 36.05,-29.08 29.46,23.67 10.81,59.88 7.68,71.16 -3.14,11.36 -25.24,19.43 -31.19,13.95 z M 2159,8173.8 c 0,0 -26.17,2.58 -30.09,-34.88 -4.08,-37.46 16.14,-45.46 24.76,-58.86 8.78,-13.32 55.65,-16.38 64.11,2.2 8.62,18.57 -3.92,30.17 8.15,44.82 12.07,14.74 -34.48,55.33 -34.48,55.33 z M 5659.9,2876.76 c -120.54,8.15 -221.01,53.76 -338.57,79.16 -117.56,25.7 -152.67,17.7 -174.3,-17.72 -21.79,-35.43 -17.55,-118.02 -18.5,-127.74 -0.94,-9.72 1205.53,-1.42 1233.27,-1.42 27.59,0 -3.45,23.99 -50.47,34.17 -54.55,11.76 -531.05,25.56 -651.43,33.55 z M 3183.96,6837.07 c -7.37,7.92 -29,39.5 -46.25,8.94 -17.24,-30.73 -7.51,-51.49 1.42,-82.29 8.93,-30.73 28.37,-100.4 36.52,-119.83 7.99,-19.44 47.02,19.2 43.26,56.19 -3.76,37.07 -27.74,129 -34.95,136.99 z M 4519.74,2876.76 c 120.38,8.15 220.85,53.76 338.41,79.16 117.56,25.7 152.82,17.7 174.45,-17.72 21.79,-35.43 11.6,-119.6 12.55,-129.31 1.09,-9.72 -1166.97,3.91 -1194.56,3.91 -27.74,0 3.29,23.99 50.32,34.02 54.54,11.91 498.45,21.95 618.83,29.94 z m 3115.3,5243.11 c -70.06,-48.51 -143.11,-105.17 -217.25,-168.73 -73.99,63.56 -147.02,120.22 -217.09,168.73 50.47,249.07 144.05,409.11 217.24,409.11 73.21,0 112.24,-69.99 156.91,-189.43 -17.72,-14.34 -29,-28.05 -29,-60.58 0,-32.6 31.2,-74.14 70.85,-77.75 6.59,-25.86 12.7,-52.98 18.34,-81.35 z m -275.56,-220.14 c -34.02,-30.57 -68.03,-62.7 -102.2,-96.09 -34.48,-3.45 -68.5,-7.36 -101.88,-11.83 7.37,89.03 17.87,172.81 30.87,249.77 55.81,-42.09 113.8,-89.58 173.21,-141.85 z m -189.97,-185.28 -9.56,-9.95 c -3.92,-4.15 -7.69,-8.31 -11.61,-12.46 0.32,6.66 0.79,13.32 1.26,19.98 6.59,0.79 13.17,1.65 19.91,2.43 z m -105.02,-115.13 c -22.26,-25.47 -43.89,-51.02 -64.74,-76.41 -39.81,49.92 -76.49,98.99 -110.19,146.56 57.06,11.75 117.24,22.41 180.26,31.66 -2.2,-33.38 -4.08,-67.32 -5.33,-101.81 z m 601.75,-391.94 c 3.29,3.29 5.95,6.2 9.56,9.88 3.44,3.76 7.67,8.31 11.59,12.46 -0.47,-6.66 -0.78,-13.32 -1.25,-19.9 -6.58,-0.87 -13.17,-1.73 -19.9,-2.44 z m 105.01,115.05 c 22.26,25.55 43.89,51.02 64.73,76.42 39.66,-49.92 76.5,-98.91 110.2,-146.48 -57.05,-11.75 -117.25,-22.42 -180.41,-31.74 2.34,33.38 4.23,67.4 5.48,101.8 z m 114.58,138.49 c 68.66,87.77 128.69,173.98 178.69,255.96 248.12,-35.19 409.89,-99.14 415.69,-190.21 5.63,-91.06 -175.87,-190.29 -456.76,-257.14 -40.75,62.15 -86.83,126.34 -137.62,191.39 z m 262.87,773.61 c -63.49,60.04 -228.7,-1.33 -434.51,-145.85 17.41,-82.92 31.35,-173.51 41.54,-269.91 97.19,-4.24 188.88,-12.86 272.74,-25.24 132.13,213.1 183.7,380.97 120.23,441 z m -499.24,-192.95 c -55.8,-42.09 -113.96,-89.58 -173.21,-141.85 27.91,-25.16 55.96,-51.34 83.86,-78.38 39.97,0.63 79.16,0.55 117.56,-0.15 -7.05,78.13 -16.61,151.96 -28.21,220.38 z m -231.67,-194.36 c -11.76,-10.82 -23.66,-21.95 -35.58,-33.16 l 13.79,0.87 c 17.87,1.17 35.74,2.11 53.46,2.89 -10.51,9.96 -21.16,19.76 -31.67,29.4 z m 356.12,-400.25 11.6,13.95 c -3.91,4.62 -7.67,9.25 -11.6,13.87 v -13.87 z m 62.07,75.94 c 55.8,70.14 105.97,138.57 149.39,203.69 -69.13,7.37 -143.74,12.39 -222.58,14.89 3.76,-46.32 6.58,-93.81 8.46,-142.17 22.26,-25.54 43.89,-51.02 64.73,-76.41 z m -197.33,220.3 c 12.38,-12.77 28.99,-30.09 37.15,-38.71 7.98,-8.62 7.67,-8.31 11.59,-12.46 -0.94,17.16 -2.03,34.17 -3.29,51.02 -15.05,0.15 -30.25,0.15 -45.45,0.15 z m -951.6,491.32 c 66.29,62.78 228.84,-1.33 434.65,-145.85 -19.75,-93.81 -35.27,-197.42 -45.45,-308.16 -81.67,-12.77 -159.11,-28.14 -231.36,-45.69 -159.41,240.6 -224.3,437.01 -157.84,499.7 z M 7991.01,7187.01 c 110.66,-167.17 176.96,-311.54 184.01,-406.13 -30.87,-10.42 -53.13,-51.02 -53.13,-73.98 0,-23.04 2.67,-22.89 7.21,-32.84 -73.99,-35.11 -227.59,27.59 -414.91,159.02 19.59,93.81 35.11,197.5 45.31,308.23 81.66,12.7 159.09,28.14 231.51,45.7 z m -569.14,403.15 c 66.92,0 121.16,-54.32 121.16,-121.25 0,-66.93 -54.24,-121.24 -121.16,-121.24 -66.93,0 -121.17,54.31 -121.17,121.24 0,66.93 54.24,121.25 121.17,121.25 z m 0,-23.05 c 54.23,0 98.27,-43.96 98.27,-98.2 0,-54.23 -44.04,-98.2 -98.27,-98.2 -54.24,0 -98.28,43.97 -98.28,98.2 0,54.24 44.04,98.2 98.28,98.2 z m -89.35,-291.85 c 0.79,1.25 41.38,-44.83 84.8,-82.06 49.37,-42.16 92.64,-72.81 110.51,-85.27 17.87,-12.46 44.67,-49.61 47.17,-69.75 2.51,-20.14 -0.78,-36.45 -16.45,-57.61 -15.67,-21.08 -41.06,-15.04 -41.06,-15.04 l -8.32,21.86 5.49,30.17 c 0,0 22.57,0.63 8.3,27.51 -14.25,26.81 -35.42,-9.63 -90.44,23.36 -55.02,32.92 -72.73,52.04 -89.19,68.57 -16.29,16.46 -64.26,45.23 -64.26,45.23 -0.94,0 -32.29,18.18 -38.4,37.38 -8.31,26.02 -6.11,63.87 8,68.57 8.45,2.75 83.54,-13.47 83.85,-12.92 z m -2433.15,-3696.13 55.33,5.65 c 1.1,-1.1 -2.35,-17.25 -2.51,-18.97 l -48.12,-561.15 c 0,0 -19.12,-4.23 -47.64,-10.81 5.32,5.49 -21.01,2.82 -16,13.63 9.72,21.01 22.1,15.21 5.02,15.21 -20.38,0 32.76,143.74 26.81,159.41 -1.73,4.85 -17.72,6.9 -14.27,18.34 4.86,15.99 52.2,55.01 41.22,61.45 -2.34,1.4 -48.27,3.13 -35.26,18.49 5.8,6.9 11.75,10.34 17.55,15.36 10.82,9.09 -17.87,-9.09 -9.24,9.09 23.98,50.47 15.67,46.71 -10.82,70.69 -24.61,22.1 63.01,58.31 30.25,58.31 -38.72,0 45.93,33.08 34.49,39.97 -12.54,7.36 -25.55,5.64 -37.94,12.23 -17.55,9.4 0,70.53 2.67,70.53 0.78,-1.57 1.1,15.21 8.46,22.57" /><path
         id="path18"
         style="fill:#1e264d;fill-opacity:1;fill-rule:nonzero;stroke:none"
         d="m 2343.65,2251.04 -286.84,-318.51 c -17.72,-19.76 -27.43,-36.37 -28.69,-49.69 -1.25,-13.33 5.17,-26.18 19.12,-38.72 31.04,-28.05 72.26,-30.56 123.67,-7.36 51.42,23.19 109.26,70.38 173.36,141.7 60.82,67.56 100.16,130.25 118.03,188.08 17.87,58 12.08,100.33 -17.39,126.98 -12.7,11.28 -26.65,13.79 -41.86,7.67 -15.04,-6.11 -34.95,-23.03 -59.4,-50.15 z m -394.53,-199.86 282.61,313.81 c 15.05,16.93 23.67,29.15 25.86,37.15 2.36,7.83 0,15.05 -6.74,21.16 -1.72,1.56 -5.17,3.92 -10.65,7.37 -5.49,3.6 -9.41,6.42 -12.07,8.77 -2.82,2.98 -4.08,6.12 -3.61,8.94 0.31,3.13 2.51,6.89 6.58,11.44 10.66,11.91 38.09,6.74 81.67,-15.68 43.73,-22.41 91.54,-56.89 143.11,-103.29 34.79,-31.35 61.91,-63.95 81.35,-97.5 19.44,-33.54 31.51,-68.34 36.05,-104.7 5.95,-48.75 1.25,-97.03 -14.11,-144.52 -15.52,-47.65 -40.13,-90.28 -73.98,-127.91 -71.64,-79.62 -151.26,-122.25 -239.35,-127.9 -88.09,-5.96 -170.7,25.86 -247.81,95.3 -11.14,10.03 -29.47,28.06 -55.65,54.23 -26.02,26.34 -47.34,46.88 -63.8,61.76 -7.2,6.43 -15.51,13.49 -24.76,20.85 -9.25,7.37 -15.05,12.07 -16.77,13.64 -7.21,6.43 -11.29,12.06 -11.91,16.61 -0.63,4.7 1.41,9.72 5.95,14.74 5.8,6.58 16.46,3.76 32.13,-7.84 4.24,-3.45 7.53,-5.65 9.41,-6.27 11.13,-0.78 21.16,1.42 30.25,6.27 8.94,4.86 22.1,16.61 38.87,35.43 z m -267.25,1031.7 -359.41,-233.55 c -22.42,-14.42 -36.06,-27.9 -40.6,-40.44 -4.7,-12.54 -1.88,-26.64 8.31,-42.33 22.88,-35.1 62.07,-48.27 117.71,-39.18 55.49,9.1 123.67,39.82 204.08,92.02 76.18,49.37 130.41,99.84 162.7,151.09 32.29,51.57 37.62,93.9 15.99,127.13 -9.24,14.26 -22.1,20.37 -38.4,18.33 -16.15,-2.03 -39.66,-13.17 -70.38,-33.07 z m -432.77,-90.92 354.24,230.11 c 18.81,12.23 30.41,21.63 34.64,28.84 4.24,7.21 3.76,14.74 -1.25,22.41 -1.1,1.73 -3.92,5.02 -8.15,9.87 -4.39,4.71 -7.68,8.63 -9.56,11.61 -1.89,3.6 -2.35,6.89 -1.1,9.56 1.1,2.98 4.23,5.95 9.4,9.24 13.33,8.78 38.41,-3.44 74.77,-36.2 36.37,-33.07 73.67,-78.53 111.45,-136.84 25.55,-39.49 43.26,-77.75 53.45,-115.21 10.03,-37.46 12.69,-74.14 7.68,-110.51 -6.9,-48.58 -23.99,-94.04 -51.1,-135.89 -27.28,-42.01 -62.23,-76.96 -104.55,-104.54 -89.66,-58.16 -177.75,-78.7 -264.27,-61.61 -86.68,17.08 -158.16,69.28 -214.75,156.43 -8.14,12.38 -21.31,34.64 -39.65,66.62 -18.34,32.13 -33.54,57.69 -45.61,76.18 -5.33,8.15 -11.6,16.93 -18.66,26.64 -7.05,9.56 -11.28,15.36 -12.54,17.41 -5.32,8.3 -7.83,14.57 -7.2,19.27 0.47,4.71 3.76,8.78 9.56,12.7 7.21,4.71 16.93,-0.63 28.84,-15.83 3.29,-4.39 5.95,-7.53 7.52,-8.78 10.5,-3.45 20.85,-4.07 31.04,-1.56 9.72,2.18 25.39,10.34 46.55,24.13 z m -118.03,196.88 c -18.65,-9.09 -30.72,-16.3 -36.36,-21.32 -5.65,-5.02 -8.47,-10.65 -8.63,-16.92 0.47,-2.51 1.42,-6.44 2.98,-11.92 5.33,-16.93 3.14,-27.9 -6.58,-32.6 -4.55,-2.36 -8.94,-2.04 -12.86,0.62 -3.91,2.82 -7.99,8.78 -12.22,17.56 -0.63,1.25 -2.19,4.71 -4.39,10.18 -11.91,29.63 -24.61,58.47 -38.24,86.53 -14.11,28.69 -29.786,58.31 -47.188,88.72 -4.07,7.36 -6.426,11.76 -7.363,13.63 -3.449,7.22 -5.02,12.71 -4.391,16.47 0.473,3.6 2.824,6.58 7.207,8.62 9.094,4.54 18.66,0.94 28.844,-10.66 2.668,-3.14 4.547,-5.01 5.644,-6.59 6.587,-9.4 14.107,-14.58 22.727,-15.05 8.62,-0.78 22.26,3.45 41.38,12.86 l 434.34,211.92 c 16.46,7.83 27.43,14.74 32.92,20.85 5.64,6.11 8.78,13.01 9.09,20.84 -0.47,3.29 -1.73,8.15 -3.76,14.89 -5.65,16.93 -3.61,27.9 6.58,32.77 4.55,2.34 8.94,2.5 12.54,0 3.76,-2.05 7.37,-6.59 10.82,-13.49 0.78,-1.88 2.97,-6.74 6.58,-14.74 14.1,-31.5 28.37,-61.75 42.32,-90.44 13.48,-27.9 27.9,-55.95 42.63,-83.85 2.98,-5.34 4.86,-8.78 5.49,-10.03 4.07,-8.31 5.96,-14.9 5.49,-19.75 -0.32,-4.71 -3.14,-8.47 -8.47,-10.98 -8.15,-4.07 -16.77,-1.09 -26.33,8.94 -2.2,2.35 -4.23,4.23 -5.49,5.49 -6.27,8.45 -13.01,12.85 -20.84,13.01 -7.68,0 -21.63,-4.87 -42.01,-14.74 z m 267.09,439.35 c -16.92,-6.11 -27.74,-8.62 -32.44,-7.05 -4.86,1.25 -8.63,5.96 -11.45,13.64 -3.91,11.13 10.19,32.29 42.48,63.64 3.14,2.98 5.17,4.85 6.74,6.11 32.29,30.41 51.41,53.92 57.06,70.69 5.8,16.77 4.7,35.74 -2.83,56.59 -7.2,19.74 -19.27,33.7 -36.2,41.69 -16.77,8.15 -35.27,8.46 -55.18,1.26 -33.85,-12.23 -62.85,-58.31 -87.3,-137.94 -1.73,-5.8 -2.98,-10.19 -3.61,-12.85 -25.08,-81.82 -49.21,-137.63 -71.94,-167.56 -22.58,-29.79 -52.98,-51.57 -90.6,-65.36 -60.03,-21.79 -117.406,-17.56 -172.265,12.85 -55.02,30.41 -95.145,80.56 -120.691,150.47 -19.754,54.39 -28.688,94.67 -26.805,120.85 1.883,26.18 14.73,43.58 38.398,52.19 71.637,26.03 118.192,40.29 139.821,42.64 21.632,2.67 34.792,-2.82 39.652,-15.99 6.11,-16.76 -9.87,-37.14 -47.965,-61.29 -14.105,-8.93 -25.23,-16.14 -33.539,-21.78 -32.289,-22.41 -53.605,-43.73 -63.637,-63.96 -10.191,-20.37 -10.816,-42.62 -2.043,-66.77 8.938,-24.6 25.243,-42.48 49.067,-53.29 23.508,-10.97 48.75,-11.6 75.082,-2.04 22.565,8.31 42.315,22.41 58.935,42.17 16.61,19.9 31.03,47.02 43.57,81.5 3.14,8.78 11.29,35.75 24.3,80.57 13.16,44.67 27.43,79.94 42.32,105.65 9.87,16.45 22.41,30.87 37.77,42.94 15.21,12.23 32.76,22.1 52.67,29.32 53.14,19.28 103.14,15.99 150.16,-9.73 47.03,-25.85 81.51,-69.12 103.61,-129.61 9.88,-27.12 16.3,-54.56 19.59,-82.77 3.29,-28.21 2.98,-49.53 -0.93,-64.27 -1.26,-4.55 -4.24,-8.15 -8.63,-11.28 -4.23,-3.14 -14.58,-7.52 -30.56,-13.48 z m -356.91,669.78 1.57,-8.31 c 6.9,-35.27 23.99,-60.51 51.1,-75.56 27.43,-15.04 62.07,-18.34 104.4,-10.18 41.37,8 72.56,21.94 93.26,42.01 21,19.9 28.68,43.1 23.51,69.74 -2.51,13.34 -6.9,21.79 -13.01,25.56 -6.27,3.61 -17.56,3.92 -33.7,0.78 z m -288.246,98.9 470.386,91.38 c 17.56,3.45 30.25,7.37 37.31,11.76 7.21,4.54 12.38,10.5 15.05,18.03 0.31,2.82 0,7.83 -0.63,14.72 -2.04,17.88 2.51,28.06 13.63,30.26 5.02,0.95 9.41,-0.16 13.01,-3.29 3.3,-3.45 5.65,-8.47 7.06,-15.68 l 12.38,-63.64 39.03,-200.62 c 13.17,-67.41 9.56,-122.27 -10.97,-163.8 -20.38,-41.55 -56.43,-67.4 -107.84,-77.28 -47.18,-9.25 -86.52,-1.73 -117.88,22.73 -31.5,24.29 -57.05,67.4 -76.64,128.38 4.55,-38.57 3.76,-66.47 -3.14,-83.71 -6.74,-17.24 -22.1,-32.92 -45.924,-47.65 l -141.699,-85.59 c -19.121,-11.9 -32.914,-21.94 -41.219,-30.4 -8.313,-8.15 -14.27,-17.56 -17.871,-27.74 -1.41,-3.93 -2.668,-9.25 -3.762,-16.15 -2.039,-11.44 -7.836,-17.87 -17.238,-19.75 -5.957,-1.25 -10.504,-0.31 -13.953,2.82 -3.293,2.98 -5.801,8 -7.055,14.74 l -18.027,92.79 -11.442,58.62 c -2.664,13.79 7.368,27.27 30.25,40.44 8.313,4.86 15.203,8.78 20.535,11.92 l 170.696,102.51 c 26.176,15.51 42.008,27.9 47.652,37.15 5.647,9.56 7.047,21.16 4.391,34.95 -0.633,3.76 -1.258,6.74 -1.883,8.78 -0.473,1.87 -1.254,3.76 -1.883,5.33 l -212.23,-41.23 c -20.067,-3.92 -33.547,-7.68 -40.598,-11.13 -6.898,-3.29 -10.973,-8.15 -12.695,-14.11 -0.157,-2.51 -0.317,-6.11 0,-11.12 0.312,-17.71 -4.547,-27.75 -14.895,-29.78 -5.012,-1.1 -9.246,0.31 -12.222,3.91 -3.293,3.76 -5.801,10.03 -7.528,19.12 l -19.433,99.7 -22.106,113.63 c -1.566,7.84 -1.566,13.33 0,16.94 1.258,3.29 4.703,5.64 9.723,6.58 10.344,2.03 18.965,-4.87 26.176,-20.38 1.25,-2.36 2.195,-4.54 2.82,-5.8 3.765,-10.35 9.879,-17.24 17.871,-20.06 8.148,-2.82 22.41,-2.2 42.793,1.72 z m 550.016,237.62 c 2.19,-31.19 -11.13,-47.64 -39.81,-49.68 -7.21,-0.47 -13.17,-0.94 -17.72,-1.25 l -76.96,-7.53 -8.77,-0.63 c -15.52,-1.09 -26.65,0 -33.39,2.82 -6.9,3.14 -10.66,8.47 -11.29,16.62 -0.94,14.42 12.39,28.84 39.66,43.26 4.7,2.51 8.31,4.24 10.66,5.49 30.09,15.51 51.88,33.7 65.2,53.61 13.48,20.21 19.13,43.73 17.25,70.21 -0.79,11.45 -3.77,19.12 -8.94,23.05 -5.01,3.76 -15.99,5.01 -32.6,3.92 l -202.67,-14.27 c 0.31,-2.35 0.31,-6.11 0.31,-11.12 0,-5.18 0.16,-8.94 0.31,-11.14 1.26,-20.21 4.7,-35.26 10.04,-45.13 5.48,-9.89 13.47,-16.94 23.98,-21.01 7.21,-2.67 17.55,-5.18 30.72,-7.22 22.25,-3.76 33.7,-11.59 34.64,-23.19 0.47,-7.21 -2.04,-12.54 -7.53,-15.67 -5.64,-3.14 -17.55,-5.49 -35.73,-6.74 l -153.927,-10.82 c -21.16,-1.41 -34.953,-0.94 -41.535,1.57 -6.582,2.51 -10.191,7.52 -10.66,15.05 -0.781,11.28 10.816,21.46 34.801,31.03 17.711,7.52 31.66,14.42 41.847,20.22 10.973,6.27 18.34,13.95 22.258,22.73 3.922,8.77 5.328,22.26 4.078,39.96 l -1.258,18.19 -199.379,-13.95 c -39.5,-2.66 -63.167,-7.84 -71.003,-15.67 -7.836,-7.53 -10.973,-21.94 -9.407,-43.26 2.035,-28.22 9.719,-50.48 23.043,-66.31 13.481,-15.83 34.485,-26.96 63.012,-33.7 7.207,-1.57 16.613,-3.45 28.684,-5.64 44.359,-8.78 67.246,-22.58 68.496,-41.7 0.785,-9.09 -1.571,-15.36 -6.582,-18.96 -5.328,-3.76 -16.301,-6.12 -33.075,-7.37 l -138.089,-9.56 c -19.125,-1.41 -30.567,0.47 -34.489,5.48 -4.07,4.71 -6.89,20.07 -8.773,45.77 l -14.109,203.15 c -2.196,29.62 -5.172,63.94 -9.086,102.51 -4.235,38.55 -6.59,62.38 -7.215,71.47 -0.625,7.84 0.156,13.48 2.039,16.77 1.722,3.14 5.176,4.86 10.031,5.33 10.66,0.78 18.023,-6.89 21.789,-23.03 0.938,-2.98 1.41,-5.02 1.41,-6.12 3.289,-11.13 9.09,-18.65 17.086,-22.42 7.992,-3.92 22.567,-5.01 43.731,-3.6 l 482.152,33.7 c 18.18,1.26 30.72,3.6 37.77,7.21 7.05,3.45 11.91,8.62 14.58,15.68 1.25,3.29 2.5,8.92 3.45,17 2.03,16.85 8.3,25.7 19.12,26.42 5.49,0.39 9.56,-1.11 12.07,-4.71 2.51,-3.37 4.07,-10.34 4.86,-20.77 z m -476.032,578.55 c -21.476,7.68 -50.008,18.03 -85.898,31.12 -50,18.25 -81.664,29.93 -94.828,35.19 -1.727,0.47 -4.547,1.48 -8.313,2.97 -19.59,7.37 -28.996,19.99 -28.054,38.01 0.464,10.66 3.445,18.89 8.621,24.22 5.484,5.41 14.886,9.87 28.679,13.24 0.946,0.32 5.493,1.49 13.641,3.61 110.977,27.74 237.781,58.39 380.414,91.93 12.08,3.06 29,7.21 51.1,12.38 93.58,21.4 146.87,39.58 160.04,54.47 0.78,1.8 1.73,4.94 2.66,9.88 4.08,18.1 12.23,26.88 24.93,26.17 6.42,-0.31 11.13,-2.66 14.1,-6.97 2.82,-4.31 4.08,-10.97 3.61,-20.06 -0.31,-6.2 -1.57,-18.73 -3.61,-37.94 -2.03,-19.12 -3.45,-35.18 -4.07,-47.96 -2.51,-47.65 -4.08,-94.05 -4.7,-139.19 0,-7.29 0,-11.52 -0.16,-12.54 -0.47,-10.34 -2.51,-17.48 -6.11,-21.55 -3.29,-3.92 -9.25,-5.72 -17.56,-5.33 -6.27,0.7 -10.82,2.59 -13.79,5.57 -2.98,2.81 -5.49,8.22 -7.52,15.98 -0.32,1.57 -0.63,3.92 -1.26,6.82 -2.66,19.83 -13.79,30.33 -33.23,31.43 -3.14,0.15 -6.27,-0.08 -9.87,-0.4 -3.45,-0.15 -7.22,-0.86 -10.98,-1.72 l -299.225,-71.71 c -1.878,-0.63 -4.226,-1.18 -6.894,-1.72 -4.703,-0.87 -7.055,-2.9 -7.68,-6.43 0.313,-2.51 1.098,-4.31 2.192,-5.64 1.41,-1.1 4.547,-2.67 9.25,-4.39 l 126.957,-41.93 c 60.51,-20.61 106.59,-35.82 138.26,-45.77 31.66,-10.03 49.84,-15.05 54.54,-15.36 8.78,-0.47 15.36,1.33 20.06,5.56 4.86,4 8.47,12.31 11.29,25.16 0.32,0.71 1.1,2.04 2.35,4.47 6.9,14.26 15.52,21 25.39,20.53 7.06,-0.39 11.6,-2.59 14.11,-6.74 2.35,-4.07 3.13,-12.46 2.51,-25.39 0,-1.96 -0.94,-8.47 -2.67,-19.36 -1.56,-10.74 -2.66,-20.53 -3.13,-29.23 -0.16,-2.83 0.15,-9.25 0.63,-18.97 0.62,-9.95 0.62,-19.2 0.15,-27.9 -0.78,-13.48 -2.66,-22.96 -5.95,-28.6 -3.14,-5.57 -7.84,-8.16 -14.26,-7.85 -7.22,0.4 -13.33,6.43 -18.34,18.19 -5.34,11.68 -9.88,19.68 -14.27,24.22 -8.31,7.37 -48.12,23.82 -119.6,49.37 -42.79,15.44 -77.58,28.29 -104.23,38.17 z m -71.949,508.01 c -20.531,3.21 -34.48,4.39 -42.008,3.37 -7.523,-0.78 -13.011,-3.84 -16.613,-8.77 -1.102,-2.44 -2.668,-6.12 -4.547,-11.53 -5.328,-16.93 -13.48,-24.61 -24.137,-22.96 -5.175,0.86 -8.464,3.53 -10.035,7.91 -1.566,4.55 -1.566,11.68 0,21.56 0.156,1.33 0.946,5.02 2.196,10.73 7.21,31.19 13.48,62 18.335,92.87 5.024,31.51 8.938,64.82 12.231,99.7 0.941,8.22 1.566,13.4 1.879,15.44 1.254,7.91 3.133,13.16 5.801,15.98 2.351,2.75 6.113,3.68 10.812,2.98 10.035,-1.57 15.832,-10.03 17.563,-25.39 0.464,-4 0.781,-6.74 0.781,-8.62 0,-11.44 3.289,-20.07 10.031,-25.47 6.582,-5.49 20.375,-9.8 41.223,-13.09 l 477.289,-75.63 c 18.02,-2.9 31.04,-3.53 39.03,-1.73 7.99,1.81 14.57,5.65 19.28,11.84 1.56,3.06 3.45,7.76 5.64,14.42 5.01,17.08 13.01,24.84 23.98,23.04 5.18,-0.71 8.78,-3.06 10.35,-7.13 2.04,-3.92 2.35,-9.72 1.09,-17.24 -0.31,-2.12 -1.25,-7.37 -2.97,-15.83 -6.43,-34.02 -12.23,-66.85 -17.24,-98.36 -4.86,-30.72 -9.25,-61.84 -13.17,-93.19 -0.63,-6.19 -0.94,-10.03 -1.25,-11.44 -1.41,-9.09 -3.77,-15.59 -6.9,-19.36 -2.83,-3.68 -7.37,-5.09 -13.17,-4.23 -8.93,1.41 -14.42,8.93 -16.3,22.57 -0.63,3.29 -1.1,5.88 -1.57,7.53 -0.15,10.66 -3.29,18.18 -9.56,22.73 -6.27,4.46 -20.53,8.46 -42.79,11.98 z m 220.699,776.51 433.552,-124.21 c 18.81,-5.49 32.29,-7.68 39.82,-6.67 7.68,1.02 13.32,4.86 16.61,11.45 1.57,2.9 3.61,6.73 6.11,11.75 8.31,18.03 17.4,25.79 27.12,22.96 5.33,-1.49 8.62,-4.23 9.72,-8.46 1.25,-4.08 0.31,-11.13 -2.51,-21 l -23.51,-82.06 -19.59,-68.42 c -2.98,-10.5 -9.25,-17.4 -18.5,-20.45 -0.31,-0.24 -0.79,-0.32 -1.1,-0.24 l -428.07,-126.57 236.22,-67.71 c 33.07,-9.49 55.8,-14.5 68.18,-14.97 12.38,-0.55 23.04,1.88 31.82,7.29 3.14,3.52 8.62,13.48 16.46,29.62 7.68,16.46 16.14,23.2 25.55,20.53 5.64,-1.57 9.4,-5.48 11.28,-11.52 1.73,-6.19 1.41,-13.71 -1.1,-22.73 -2.5,-8.69 -6.58,-21 -12.22,-36.91 -5.8,-16.07 -9.72,-27.82 -11.91,-35.5 -4.7,-16.38 -8.94,-34.01 -12.38,-52.75 -0.79,-4.39 -1.42,-6.97 -1.57,-7.68 -2.04,-6.97 -4.86,-11.52 -8.63,-13.79 -3.76,-2.04 -8.77,-2.27 -15.36,-0.31 -9.09,2.51 -13.32,11.52 -13,26.88 0.31,9.01 0.15,16.06 -0.95,21.31 0.16,9.41 -2.66,16.85 -8.46,22.19 -5.8,5.56 -17.24,10.66 -34.64,15.67 l -19.44,5.64 -504.556,144.6 c -15.993,4.62 -25.551,9.4 -28.844,14.58 -3.133,4.94 -3.445,12.62 -0.625,22.49 2.664,9.01 7.207,16.14 13.789,21.47 6.59,5.33 16.305,9.56 28.531,12.86 l 558.325,159.88 -372.583,106.82 c -25.55,7.28 -44.043,10.42 -55.488,9.48 -11.129,-1.25 -21.16,-6.11 -29.781,-14.73 -2.508,-3.84 -5.488,-10.43 -8.934,-19.59 -6.113,-17.95 -14.73,-25.48 -25.234,-22.42 -5.957,1.64 -9.563,4.94 -10.973,9.95 -1.41,4.79 -0.629,12.15 2.348,22.18 l 14.582,51.02 23.82,82.84 c 2.196,7.68 4.391,12.54 7.059,14.74 2.66,2.03 6.269,2.5 10.969,1.17 9.25,-2.66 14.421,-9.87 15.519,-21.78 0.313,-4.39 0.938,-8.24 1.566,-11.21 0,-14.42 2.665,-24.93 7.208,-31.59 4.546,-6.5 15.05,-12.07 31.824,-16.85 z m 203.292,286.22 c -16.93,15.13 -39.49,35.5 -67.87,60.98 -39.49,35.66 -64.58,58.3 -74.76,68.18 -1.41,1.02 -3.61,3.06 -6.43,5.8 -15.52,14.26 -19.59,29.39 -11.91,45.85 4.39,9.63 10.19,16.14 17.08,19.2 7.06,2.97 17.56,3.53 31.51,1.56 1.09,-0.15 5.64,-0.78 13.95,-1.8 113.48,-15.91 242.48,-35.03 387.32,-57.29 12.22,-1.64 29.46,-4.23 51.87,-7.68 94.68,-15.12 151.11,-18.34 168.82,-9.4 1.41,1.33 3.45,3.92 6.27,8.07 10.34,15.28 21.32,20.38 32.76,15.05 5.96,-2.83 9.41,-6.66 10.5,-11.84 0.94,-5.09 -0.31,-11.67 -4.23,-19.9 -2.51,-5.65 -8.31,-16.85 -17.56,-33.86 -8.93,-16.93 -16.3,-31.35 -21.63,-42.87 -20.22,-43.26 -39.03,-85.74 -56.42,-127.35 -2.83,-6.75 -4.39,-10.66 -4.86,-11.68 -4.39,-9.25 -8.94,-15.21 -13.8,-17.64 -4.54,-2.35 -10.81,-1.8 -18.34,1.73 -5.48,2.98 -8.93,6.35 -10.66,10.26 -1.72,3.77 -1.88,9.72 -0.93,17.64 0.31,1.64 0.78,3.91 1.41,6.81 4.86,19.44 -1.57,33.39 -19.13,41.54 -2.82,1.34 -5.8,2.36 -9.25,3.37 -3.29,1.1 -7.05,1.88 -10.81,2.51 l -304.4,45.61 c -1.88,0.08 -4.23,0.48 -6.9,0.94 -4.7,1.02 -7.68,0 -9.56,-2.97 -0.78,-2.43 -0.63,-4.47 0,-6.12 0.79,-1.49 3.14,-4.15 6.9,-7.44 l 101.88,-86.53 c 48.44,-41.77 85.43,-73.12 110.98,-94.2 25.55,-21.16 40.6,-32.68 44.99,-34.72 7.83,-3.6 14.73,-4.47 20.53,-2.35 6.11,1.88 12.54,8.31 19.9,19.12 0.63,0.47 1.88,1.49 3.93,3.3 11.75,10.5 22.25,13.63 31.19,9.48 6.42,-2.98 9.87,-6.66 10.5,-11.52 0.78,-4.7 -1.57,-12.7 -7.06,-24.45 -0.78,-1.81 -4.07,-7.53 -9.71,-17.01 -5.65,-9.4 -10.19,-18.03 -13.8,-25.86 -1.25,-2.59 -3.44,-8.62 -6.58,-17.87 -3.29,-9.48 -6.59,-18.11 -10.34,-25.94 -5.65,-12.23 -10.98,-20.3 -16.31,-24.3 -4.86,-4 -10.34,-4.62 -16.14,-1.88 -6.43,3.06 -9.88,10.89 -10.19,23.74 -0.47,12.78 -1.73,21.95 -4.07,27.75 -5.02,9.96 -35.74,40.13 -92.33,90.68 -34.01,30.25 -61.44,55.17 -82.44,74.37 z m 380.89,-4290.26 114.11,47.5 c -30.25,39.33 -63.32,18.96 -63.32,18.96 0,0 7.83,14.1 23.67,22.88 15.83,8.78 57.52,23.52 97.96,-5.64 3.61,-2.67 6.74,-5.32 9.88,-7.83 l 332.77,138.56 c 1.25,0.31 3.6,1.41 7.05,2.81 21.94,9.57 40.91,4.08 57.21,-16.14 7.53,-9.56 11.76,-17.08 12.39,-22.72 0.62,-5.49 -1.88,-12.54 -7.22,-21.64 L 1807.27,2146.8 c -0.47,-0.94 -1.26,-2.2 -2.2,-3.29 -12.22,-18.81 -14.1,-34.95 -5.8,-48.91 2.67,-10.5 3.45,-18.34 2.51,-23.19 -0.94,-5.18 -3.76,-9.56 -8.78,-13.33 -4.7,-3.76 -9.09,-5.32 -13.48,-4.54 -4.07,0.93 -8.3,4.07 -12.69,9.56 l -39.19,48.75 -92.64,115.83 -6.58,8.31 c -8.93,11.13 -13.95,18.96 -14.73,23.35 -0.94,4.39 0.94,8.46 5.64,12.22 8.15,6.6 22.89,3.14 44.67,-10.65 1.88,-1.09 3.29,-2.04 4.08,-2.51 3.13,-2.19 6.74,-2.82 11.29,-2.19 4.22,0.63 8.77,2.66 13.16,6.11 2.19,1.72 3.76,3.29 4.86,4.39 1.1,1.09 2.04,2.04 2.66,2.98 l 72.58,105.02 c -24.92,28.21 -53.77,85.11 -78.53,131.97 -2.67,-1.56 -4.55,-2.5 -5.49,-2.97 -5.02,-2.04 -6.27,-3.3 -10.66,-5.17 l -77.27,-31.66 c -7.99,-2.98 -14.58,-5.96 -20.22,-8.94 -5.33,-2.82 -9.88,-5.64 -13.17,-8.31 -9.25,-7.21 -14.73,-15.05 -16.3,-23.2 -1.73,-7.99 0.31,-17.55 5.64,-28.84 1.88,-6.27 4.86,-13.48 9.09,-22.26 7.21,-15.83 7.37,-26.65 0.32,-32.13 -5.02,-4.08 -9.88,-5.48 -14.74,-3.92 -4.7,1.1 -10.03,5.33 -15.67,12.54 l -88.56,110.51 c -4.55,5.8 -6.9,10.5 -6.9,14.58 -0.16,3.91 1.88,7.51 5.96,10.81 7.99,6.42 21.16,5.17 39.5,-3.3 l 1.88,-0.46 c 10.65,-3.29 20.69,-4.23 30.09,-3.45 9.41,0.78 23.51,5.02 42.32,13.01 z m 253.15,-48.6 v 0 c 3.44,-2.18 6.42,-2.18 8.93,-0.31 1.73,1.57 4.24,3.93 6.74,7.06 2.51,3.29 5.17,7.05 7.99,11.44 l 94.36,142.16 -147.96,-60.81 c -5.64,-2.51 -10.5,-4.7 -14.58,-6.58 10.19,-17.87 16.93,-39.03 30.41,-68.66 4.7,-10.19 9.4,-18.03 14.11,-24.3" /><path
         id="path20"
         style="fill:#1e264d;fill-opacity:1;fill-rule:nonzero;stroke:none"
         d="m 8933.82,3084.44 10.35,-4.69 c 13.64,-5.96 24.77,-9.72 33.38,-11.29 8.78,-1.56 16,-1.25 21.96,0.94 6.27,5.33 14.88,16.62 25.39,34.17 10.5,17.87 20.68,24.45 30.09,20.38 5.64,-2.51 8.93,-5.96 10.03,-10.19 0.94,-4.24 -0.46,-10.66 -4.39,-19.29 l -24.61,-55.48 -34.64,-77.9 c -3.45,-7.52 -7.36,-12.54 -11.76,-14.9 -4.54,-2.5 -9.71,-2.18 -15.83,0.32 -7.52,3.45 -10.49,12.39 -8.62,26.65 1.1,9.4 1.57,16.77 1.26,22.1 1.56,6.11 -1.09,12.38 -7.84,18.65 -6.9,6.42 -20.37,14.73 -40.44,25.24 l -362.08,187.93 c -9.25,4.71 -18.03,9.25 -26.17,13.18 -8.16,4.07 -15.21,7.51 -21.01,10.02 -14.89,6.59 -27.43,10.03 -38.08,10.66 -10.67,0.62 -18.19,-2.03 -23.21,-7.83 -2.35,-2.83 -5.17,-6.43 -8.3,-10.98 -9.57,-13.32 -18.66,-18.03 -27.27,-14.1 -6.27,2.82 -9.56,7.36 -9.72,13.48 0,6.58 4.38,19.27 13.16,38.87 l 40.13,90.29 c 7.99,17.87 14.1,30.72 18.5,38.55 4.38,7.84 7.98,12.38 10.34,13.49 5.02,2.82 16.45,2.5 34.01,-0.17 7.84,-1.41 14.11,-2.34 18.81,-2.66 l 392.33,-52.35 -338.88,306.59 24.76,55.49 38.72,87.31 11.76,26.17 c 3.29,7.53 7.05,12.54 11.28,14.42 4.24,2.2 9.25,2.04 14.89,-0.62 8.63,-3.76 11.29,-12.86 8.16,-27.28 -1.26,-6.43 -2.04,-11.29 -2.51,-15.05 -1.25,-10.34 -0.16,-18.81 3.76,-25.39 3.6,-6.58 10.82,-12.23 21.47,-16.92 3.92,-1.89 9.25,-4.08 15.99,-6.59 6.74,-2.66 13.95,-5.48 21.32,-8.46 L 9135.56,3605 c 3.14,-1.1 7.83,-2.99 13.48,-5.49 42.16,-16.77 68.96,-21.47 80.1,-14.11 4.85,3.92 10.03,10.34 15.98,19.12 8.78,13.65 18.65,17.87 29.63,13.02 5.48,-2.35 8.61,-5.8 10.03,-9.88 0.94,-4.07 0.16,-9.41 -2.67,-15.68 l -31.34,-70.69 -30.1,-67.39 -37.93,-85.43 c -3.76,-8.16 -8,-13.79 -12.38,-16.46 -4.71,-2.66 -10.03,-2.66 -15.99,0 -8.62,3.92 -11.6,13.48 -9.25,29.15 1.25,8.63 1.72,15.21 1.88,19.76 -0.16,11.43 -4.39,21.79 -13.01,30.88 -8.31,9.24 -21.16,17.86 -38.56,25.7 l -6.26,2.82 -364.44,150.78 347.97,-319.44 c 2.51,-2.35 6.11,-5.33 10.66,-9.25 28.84,-26.48 40.29,-46.55 34.33,-59.71 -7.53,-17.09 -27.27,-23.21 -59.4,-18.5 -5.18,0.94 -9.73,1.56 -13.33,1.89 l -487.63,65.98 z M 8010.6,2571.9 c -4.07,3.13 -8.62,6.58 -13.64,10.34 -5.17,3.6 -7.99,5.64 -8.46,6.11 -2.98,2.35 -6.58,2.67 -11.13,0.78 -4.54,-2.04 -9.25,-5.96 -13.95,-11.91 -10.19,-12.54 -15.67,-26.64 -16.31,-42 -0.93,-15.68 3.77,-36.37 13.65,-62.07 4.85,-13.18 11.91,-29.48 20.85,-48.29 12.06,-24.92 15.04,-41.22 8.77,-48.75 -3.92,-4.85 -8.15,-7.52 -12.7,-7.98 -4.7,-0.64 -9.4,1.25 -14.26,5.16 -8,6.58 -20.69,18.65 -37.61,36.21 -17.09,17.41 -34.5,36.68 -52.52,57.53 -2.66,3.14 -6.9,8.15 -12.7,14.89 -23.51,26.96 -31.19,45.77 -22.88,55.96 80.57,99.38 199.37,246.09 291.39,359.88 3.13,3.76 6.89,5.49 11.6,5.18 4.54,-0.48 9.4,-2.82 14.42,-6.9 1.41,-1.1 13.01,-11.76 34.95,-32.45 21.79,-20.69 50.94,-48.43 87.15,-82.92 8.47,-8.31 13.64,-15.04 15.36,-20.22 1.73,-5.32 0.94,-9.87 -2.51,-14.41 -7.67,-9.25 -28.21,-8 -61.75,3.91 -7.99,2.82 -14.26,5.18 -19.28,6.9 -2.36,0.63 -5.8,1.73 -9.87,3.44 -45,16.31 -76.66,13.33 -95,-9.4 -12.07,-14.73 -18.02,-24.61 -17.87,-29.78 0.16,-5.02 8,-13.79 23.83,-26.49 l 382.93,-310.2 c 16.77,-13.47 28.68,-21.16 36.37,-23.03 7.52,-2.04 14.88,-0.64 21.79,4.07 2.18,0.94 5.01,2.82 8.77,5.8 10.5,8.15 19.75,9.41 27.58,3.45 4.55,-3.61 6.6,-8.16 5.65,-13.8 -0.78,-5.17 -4.07,-11.44 -9.56,-18.34 l -66.46,-81.97 -72.26,-89.35 c -4.86,-5.96 -9.41,-9.56 -13.64,-10.65 -4.39,-1.26 -8.78,0 -13,3.44 -7.53,6.12 -8.31,16.3 -2.05,30.41 1.57,3.76 2.51,6.27 3.14,8.15 6.11,9.72 7.52,18.49 4.38,26.65 -3.13,7.83 -12.85,18.34 -29.3,31.66 z m 569.45,4270.89 c 16.3,7.61 26.97,10.98 31.66,9.96 5.02,-0.94 9.1,-5.25 12.7,-12.78 4.86,-10.57 -7.36,-32.99 -36.84,-67.08 -2.82,-3.06 -4.85,-5.33 -6.11,-6.74 -29.62,-33 -46.55,-58.16 -50.78,-75.32 -4.23,-17.32 -1.57,-35.97 7.84,-56.11 8.93,-19.13 22.1,-31.98 39.65,-38.41 17.4,-6.58 35.9,-5.41 55.02,3.53 32.61,15.21 57.68,63.64 74.92,145.15 1.26,5.88 2.04,10.34 2.51,13.17 18.03,83.62 37.15,141.3 57.06,173.12 19.9,31.58 48.27,55.96 84.64,72.89 57.84,26.95 115.36,27.82 172.73,2.27 57.37,-25.39 101.73,-71.87 133.24,-139.43 24.45,-52.35 36.99,-91.77 37.3,-118.02 0.47,-26.26 -10.98,-44.6 -33.7,-55.26 -69.12,-32.21 -114.27,-50.55 -135.59,-54.78 -21.16,-4.47 -34.79,-0.24 -40.9,12.62 -7.52,16.06 6.73,37.77 42.48,65.2 13.32,10.11 23.81,18.1 31.66,24.53 30.09,25.16 49.37,48.28 57.84,69.44 8.3,21.08 6.89,43.19 -3.93,66.46 -11.12,23.83 -28.84,40.13 -53.6,49.06 -24.45,8.7 -49.53,7.21 -74.92,-4.7 -21.79,-10.19 -40.29,-26.02 -55.02,-47.18 -14.9,-21.16 -26.81,-49.45 -36.37,-84.88 -2.34,-9.01 -7.99,-36.6 -17.24,-82.37 -9.09,-45.77 -20.22,-81.97 -32.92,-109.09 -8.31,-17.16 -19.59,-32.6 -33.85,-46.09 -14.11,-13.47 -30.73,-24.76 -49.85,-33.7 -51.26,-23.82 -101.41,-24.92 -150.48,-3.37 -49.05,21.71 -87.3,61.68 -114.58,120.15 -12.07,26.1 -20.84,52.9 -26.64,80.72 -5.64,27.75 -7.21,49.07 -4.55,64.04 0.64,4.62 3.45,8.61 7.38,12.06 4.07,3.45 13.94,8.86 29.3,16.07 z m 321.64,-1199.17 c -17.87,-3.14 -30.56,-6.82 -37.77,-11.13 -7.22,-4.39 -12.23,-10.19 -15.05,-17.64 -0.31,-2.9 -0.15,-7.59 0.16,-13.87 1.4,-18.65 -3.61,-29.07 -14.89,-31.11 -5.18,-0.86 -9.1,0.24 -11.61,3.21 -2.82,3.14 -4.69,8.55 -6.11,16.46 l -29.62,167.8 -12.69,72.18 c -13.33,75.08 -7.53,133.7 17.23,175.71 24.77,42.01 69.29,68.57 133.39,79.94 58.62,10.34 107.84,4.23 147.66,-18.34 39.81,-22.49 63.95,-57.13 72.26,-103.92 2.66,-15.36 2.5,-33.62 -0.48,-54.86 -2.97,-21.32 -3.75,-34.88 -2.66,-40.6 1.41,-8.93 4.24,-14.42 8.31,-16.77 4.07,-2.28 15.05,-1.8 32.92,1.33 l 166.78,29.39 c 20.37,3.61 34.01,7.13 40.9,10.51 6.74,3.13 10.97,7.83 12.86,13.78 0.31,2.51 0.47,6.35 0.62,11.84 -0.47,17.32 4.71,27.04 15.36,28.92 5.02,0.94 9.09,-0.32 12.07,-3.92 2.98,-3.45 5.18,-10.11 6.9,-19.51 0.15,-1.41 0.63,-5.1 1.41,-10.98 3.14,-31.81 7.52,-63.08 12.86,-93.65 5.48,-31.5 12.53,-64.27 20.84,-98.28 1.88,-8.15 2.98,-13.17 3.3,-15.28 1.4,-7.84 1.25,-13.48 -0.16,-17.01 -1.42,-3.29 -4.71,-5.48 -9.4,-6.27 -9.89,-1.8 -18.19,4.31 -24.77,18.26 -1.73,3.69 -2.98,6.19 -3.6,7.92 -3.77,10.81 -9.73,17.87 -17.72,20.77 -8.15,3.05 -22.41,2.74 -43.26,-0.95 z m 148.91,185.12 c 23.04,4.07 38.72,9.48 46.4,16.14 7.84,6.58 10.66,16.22 8.46,28.84 -4.7,26.65 -19.91,44.75 -45.46,54.31 -25.7,9.49 -60.97,10.27 -105.95,2.35 -49.85,-8.77 -86.84,-23.12 -111.29,-42.86 -24.45,-19.76 -34.33,-43.34 -29.63,-70.54 2.04,-11.21 5.96,-18.5 11.76,-21.71 5.8,-3.21 18.65,-3.06 38.56,0.39 z m 354.4,-330.5 c 20.69,1.8 34.64,4.08 41.69,6.81 7.06,2.59 11.61,6.9 13.96,12.63 0.47,2.5 1.09,6.5 1.72,12.22 1.1,17.71 7.05,27.2 17.71,28.14 5.18,0.47 9.09,-1.41 11.76,-5.26 2.67,-3.99 4.39,-11.05 5.17,-20.92 0.15,-1.41 0.32,-5.1 0.48,-10.97 0.46,-32.06 1.87,-63.4 4.69,-94.52 2.82,-31.82 6.9,-65.05 12.23,-99.69 1.09,-8.23 1.73,-13.32 1.88,-15.52 0.79,-7.91 0.16,-13.48 -1.72,-16.85 -1.57,-3.21 -5.02,-5.09 -9.88,-5.48 -10.03,-0.86 -17.71,5.87 -23.04,20.38 -1.41,3.83 -2.35,6.42 -2.82,8.14 -2.82,11.21 -8.15,18.66 -15.84,22.26 -7.83,3.77 -22.25,4.71 -43.26,2.82 l -481.51,-42.08 c -18.19,-1.65 -30.88,-4.16 -38.25,-7.84 -7.37,-3.68 -12.7,-8.93 -15.83,-16.14 -0.79,-3.3 -1.41,-8.31 -1.88,-15.36 -0.79,-17.8 -6.75,-27.28 -17.87,-28.22 -5.18,-0.47 -9.09,1.02 -11.76,4.55 -2.82,3.29 -4.54,8.85 -5.17,16.46 -0.16,2.03 -0.47,7.36 -0.94,16.06 -1.89,34.56 -4.23,67.79 -7.05,99.61 -2.67,30.96 -5.96,62.15 -9.72,93.58 -0.95,6.11 -1.57,9.95 -1.57,11.37 -0.78,9.24 -0.16,16.06 1.88,20.53 2.03,4.23 5.96,6.66 11.92,7.21 8.92,0.78 16.14,-5.18 21.31,-17.87 1.26,-3.14 2.35,-5.49 3.3,-7.06 2.65,-10.18 7.52,-16.77 14.72,-19.67 7.06,-2.82 21.95,-3.21 44.37,-1.25 z m -457.69,-680.5 c -18.18,0.31 -31.19,-0.8 -38.88,-3.77 -7.67,-2.83 -13.63,-7.52 -17.39,-14.42 -1.1,-3.13 -2.35,-8 -3.46,-15.05 -2.65,-17.56 -9.56,-26.33 -20.68,-26.18 -5.18,0.16 -9.09,2.04 -11.29,5.8 -2.51,3.45 -3.6,9.25 -3.45,16.94 0,2.03 0.32,7.36 0.78,15.98 1.73,34.64 2.83,68.03 3.3,99.85 0.62,31.03 0.62,62.53 0.15,94.05 -0.31,6.19 -0.31,10.11 -0.31,11.51 0.16,9.25 1.57,15.91 4.08,20.15 2.34,4.07 6.58,6.11 12.54,6.03 8.93,-0.23 15.36,-6.81 19.28,-20.06 0.94,-3.22 1.87,-5.73 2.51,-7.29 1.72,-10.51 5.79,-17.48 12.54,-21.16 6.89,-3.45 21.63,-5.49 44.2,-5.96 l 440.6,-7.67 c 39.35,-0.8 63.49,2.34 71.8,8.92 8.45,6.59 12.85,20.15 13.16,40.53 0.47,27.11 -5.33,48.5 -17.56,64.5 -12.22,15.98 -31.97,28.44 -59.56,37.22 -6.89,1.96 -16.61,4.39 -28.99,7.76 -44.21,11.76 -66,26.72 -65.68,44.83 0.15,7.99 2.97,13.4 8.62,16.54 5.49,2.9 17.24,4.3 35.43,3.99 l 144.82,-2.5 c 15.21,-0.32 24.61,-2.9 27.75,-8 3.13,-5.17 4.55,-19.2 4.08,-42.48 l -3.29,-194.83 c -0.48,-29.94 -0.48,-64.27 0.15,-102.98 0.78,-38.88 0.94,-62.7 0.78,-71.79 0,-7.99 -1.25,-13.48 -3.44,-16.62 -2.04,-2.98 -5.49,-4.54 -10.35,-4.38 -10.81,0.15 -17.4,8.46 -19.75,24.76 -0.63,3.14 -0.94,5.17 -0.94,6.27 -2.35,11.28 -7.21,19.44 -14.89,23.82 -7.69,4.55 -22.26,6.91 -43.26,7.22 z m 321.01,-335.13 c 20.38,-10.19 47.5,-23.99 81.35,-41.38 47.34,-24.14 77.43,-39.5 89.97,-46.39 1.57,-0.63 4.23,-2.05 7.68,-3.92 18.65,-9.88 26.49,-23.36 23.36,-41.23 -1.89,-10.5 -5.8,-18.18 -11.6,-22.88 -6.12,-4.71 -15.99,-8.16 -29.94,-9.72 -1.1,-0.31 -5.8,-0.95 -14.11,-1.88 -113.48,-14.12 -243.11,-29 -388.73,-44.83 -12.38,-1.73 -29.62,-3.77 -52.35,-6.27 -95.29,-9.72 -150.47,-21.32 -165.36,-34.49 -1.1,-1.56 -2.35,-4.7 -3.92,-9.4 -6.11,-17.55 -15.36,-25.24 -27.74,-23.04 -6.43,1.09 -10.82,4.07 -13.33,8.62 -2.19,4.7 -2.67,11.44 -1.1,20.37 1.1,6.12 3.76,18.5 8.16,37.31 4.38,18.65 7.83,34.49 10.03,47.03 8.3,47.02 15.36,92.79 21.47,137.62 0.94,7.2 1.57,11.44 1.72,12.54 1.73,10.02 4.55,16.93 8.62,20.53 3.92,3.45 10.03,4.54 18.19,3.14 6.11,-1.42 10.34,-3.93 13.01,-7.22 2.66,-3.13 4.39,-8.94 5.48,-16.77 0.16,-1.56 0.16,-4.07 0.47,-6.89 0.16,-20.07 10.03,-31.98 29.01,-35.28 3.12,-0.46 6.42,-0.78 10.03,-0.78 3.29,-0.31 7.2,0 10.96,0.32 l 305.81,34.79 c 1.89,0.32 4.4,0.64 7.05,0.95 4.71,0.15 7.38,1.87 8.32,5.33 0.15,2.5 -0.47,4.38 -1.41,5.79 -1.26,1.26 -4.24,3.29 -8.62,5.49 l -120.85,57.06 c -57.53,27.9 -101.58,48.58 -131.67,62.38 -30.26,13.79 -47.65,21 -52.36,21.95 -8.61,1.4 -15.36,0.46 -20.52,-3.14 -5.34,-3.45 -9.89,-11.29 -14.27,-23.51 -0.47,-0.63 -1.41,-2.04 -2.82,-4.23 -8.78,-13.32 -18.03,-18.97 -27.75,-17.41 -7.05,1.26 -11.28,4.09 -13.16,8.47 -1.89,4.39 -1.73,12.85 0.62,25.55 0.31,1.88 1.89,8.31 4.87,18.96 2.97,10.36 5.16,19.92 6.73,28.54 0.47,2.81 1.1,9.08 1.72,18.96 0.64,9.88 1.73,19.12 3.29,27.75 2.2,13.16 5.34,22.41 9.26,27.59 3.92,5.16 8.93,7.2 15.2,5.95 7.06,-1.26 12.38,-7.84 15.99,-20.22 3.76,-12.07 7.37,-20.7 11.13,-25.71 7.37,-8.31 44.83,-29.62 112.7,-63.64 40.75,-20.53 73.51,-37.46 98.75,-50.62 z m -665.23,-1942.54 -78.84,95.15 c -28.68,-40.29 0.32,-65.99 0.32,-65.99 0,0 -15.68,3.45 -28.69,16.14 -13.16,12.39 -39.34,47.96 -23.2,95.15 1.26,4.23 2.82,8.14 4.4,11.75 l -229.64,277.75 c -0.78,0.95 -2.5,3.14 -4.86,5.96 -15.51,18.18 -15.83,37.93 -1.25,59.25 6.9,10.03 12.7,16.3 18.02,18.49 5.02,2.2 12.54,2.04 22.73,-0.62 l 580.27,-174.93 c 1.1,-0.32 2.2,-0.63 3.76,-1.25 21.47,-6.27 37.47,-3.3 48.44,8.77 9.09,5.65 16.45,8.78 21.31,9.1 5.18,0.62 10.35,-0.78 15.52,-4.23 5.02,-3.46 7.52,-7.22 8.16,-11.76 0.31,-4.08 -1.42,-9.25 -5.34,-15.05 l -35.27,-51.57 -83.7,-122.57 -5.95,-8.62 c -8,-11.92 -14.11,-18.81 -18.03,-21.01 -4.08,-2.2 -8.46,-1.56 -13.33,1.89 -8.76,5.95 -9.71,20.99 -2.97,45.76 0.47,2.2 1.1,3.77 1.26,4.71 1.09,3.6 0.78,7.2 -1.11,11.44 -1.87,3.92 -5.16,7.68 -9.71,10.81 -2.35,1.57 -4.39,2.67 -5.8,3.45 -1.26,0.62 -2.51,1.26 -3.61,1.57 l -121.63,38.56 c -19.59,-31.98 -65.52,-76.18 -103.29,-113.48 2.34,-2.2 3.92,-3.77 4.54,-4.4 3.6,-4.38 5.02,-5.02 8,-8.78 l 52.82,-64.58 c 5.32,-6.73 10.19,-12.22 14.57,-16.61 4.24,-4.38 8.31,-7.84 11.92,-10.34 9.56,-6.58 18.65,-9.56 26.8,-8.78 8.16,0.63 16.77,5.49 26.02,13.95 5.49,3.6 11.44,8.62 18.65,15.2 13.02,11.45 23.2,14.74 30.57,9.72 5.33,-3.76 8.15,-7.99 8.15,-13.01 0.31,-4.85 -2.35,-11.12 -7.53,-18.81 l -79.62,-116.93 c -4.24,-6.11 -8.15,-9.56 -12.07,-10.81 -3.6,-1.26 -7.84,-0.31 -12.07,2.51 -8.47,5.79 -11.13,18.65 -8.47,38.87 v 1.88 c 0,10.97 -1.87,21.01 -5.48,29.78 -3.61,8.78 -11.75,21 -24.77,36.52 z m -27.58,256.28 v 0.16 c 0.94,3.91 0.32,6.73 -2.35,8.46 -2.04,1.41 -5.02,2.98 -8.78,4.54 -3.76,1.42 -8.15,2.83 -13.32,4.24 l -163.49,48.75 101.42,-123.84 c 4.07,-4.69 7.68,-8.45 10.65,-11.9 14.11,15.04 32.29,27.58 56.74,49.05 8.31,7.37 14.58,14.27 19.13,20.54 z m 630.11,945.8 -104.55,65.83 c -14.73,-47.33 21.01,-62.7 21.01,-62.7 0,0 -15.99,-1.57 -32.45,6.27 -16.3,7.84 -52.35,33.39 -51.72,83.08 -0.16,4.54 0.15,8.78 0.46,12.85 l -305.03,191.7 c -1.09,0.78 -3.29,2.03 -6.42,4.07 -20.53,12.39 -26.95,31.19 -19.75,56.12 3.29,11.6 7.05,19.28 11.29,23.2 4.23,3.6 11.28,5.8 21.79,6.43 l 605.82,15.36 c 1.09,0.15 2.34,0.15 3.92,0.15 22.41,0.78 36.68,8.63 43.26,23.35 7.05,8.16 13,13.49 17.56,15.52 4.69,2.04 10.02,2.35 15.98,0.63 5.8,-1.72 9.56,-4.55 11.28,-8.62 1.73,-3.76 1.57,-9.09 -0.31,-15.83 l -17.24,-60.04 -41.07,-142.63 -2.98,-10.03 c -3.92,-13.79 -7.52,-22.26 -10.65,-25.55 -3.14,-3.29 -7.52,-4.24 -13.17,-2.51 -10.19,2.98 -15.83,17.08 -17.24,42.64 -0.16,2.18 -0.16,3.91 -0.16,4.85 0,3.77 -1.56,7.06 -4.7,10.51 -2.98,2.98 -7.22,5.64 -12.54,7.21 -2.82,0.78 -5.02,1.09 -6.59,1.4 -1.41,0.16 -2.82,0.32 -3.92,0.32 l -127.58,-1.26 c -8.63,-36.68 -38.41,-92.95 -62.54,-140.28 2.82,-1.42 4.7,-2.2 5.63,-2.67 4.71,-2.97 6.27,-3.29 10.35,-5.8 l 70.39,-44.98 c 7.05,-4.7 13.47,-8.15 18.96,-11.29 5.48,-2.82 10.34,-4.7 14.57,-5.95 11.29,-3.14 20.69,-3.14 28.22,0.15 7.52,3.14 14.1,10.5 20.37,21.32 4.08,5.18 8.16,11.76 13.01,20.22 8.62,15.05 17.4,21.32 25.87,18.82 6.27,-1.89 10.19,-5.02 11.92,-9.73 1.71,-4.7 1.25,-11.28 -1.26,-20.06 l -39.19,-136.05 c -2.04,-7.21 -4.7,-11.76 -7.99,-14.12 -2.98,-2.34 -7.21,-2.82 -12.23,-1.4 -9.87,2.98 -16.45,14.27 -20.22,34.17 l -0.63,1.72 c -3.45,10.66 -8.31,19.44 -14.41,26.65 -6.12,7.2 -17.72,16.3 -35.12,26.96 z m -106.43,234.8 v 0 c -0.15,4.23 -1.72,6.59 -4.86,7.52 -2.35,0.63 -5.64,1.26 -9.72,1.58 -3.91,0 -8.62,0 -13.94,-0.16 l -170.55,-4.86 135.12,-85.9 c 5.33,-3.14 9.87,-5.8 13.8,-7.99 8.61,18.65 22.1,36.2 38.55,64.42 5.49,9.72 9.25,18.02 11.6,25.39 z m 180.57,2190.12 -123.36,-4.23 c 14.43,-47.5 52.51,-40.13 52.51,-40.13 0,0 -12.38,-10.27 -30.41,-13.01 -17.86,-2.75 -61.91,-1.8 -89.49,39.81 -2.51,3.68 -4.71,7.29 -6.59,10.74 l -360.2,-12.3 c -1.26,0 -3.91,-0.16 -7.68,-0.24 -23.82,-1.25 -39.65,10.58 -47.81,35.27 -3.76,11.44 -5.02,19.99 -3.6,25.55 1.41,5.41 6.11,11.12 14.41,17.71 l 492.82,352.52 c 0.93,0.7 2.03,1.49 3.29,2.35 18.02,13.09 25.54,27.59 22.57,43.65 1.26,10.66 3.29,18.26 5.95,22.58 2.67,4.31 6.9,7.52 12.85,9.56 5.65,1.8 10.36,1.56 14.27,-0.79 3.45,-2.11 6.43,-6.66 8.63,-13.32 l 19.27,-59.41 46.09,-141.15 3.13,-10.03 c 4.54,-13.63 6.27,-22.65 5.49,-27.04 -0.64,-4.54 -3.77,-7.68 -9.57,-9.48 -10.03,-3.29 -22.57,5.25 -38.09,25.71 -1.25,1.72 -2.19,3.05 -2.98,3.84 -2.04,3.05 -5.16,5.02 -9.56,6.03 -4.22,0.94 -9.24,0.63 -14.58,-1.09 -2.66,-0.95 -4.69,-1.81 -6.11,-2.43 -1.41,-0.63 -2.66,-1.26 -3.6,-1.88 l -104.71,-72.73 c 13.17,-35.12 20.22,-98.52 26.81,-151.19 3.13,0.47 5.17,0.86 6.27,0.86 5.48,0.32 7.05,0.95 11.75,1.02 l 83.55,2.44 c 8.47,0.07 15.67,0.62 21.94,1.33 6.12,0.7 11.29,1.8 15.36,3.21 11.29,3.61 19.12,8.93 23.36,15.83 4.39,6.9 5.95,16.62 4.86,29.08 0.47,6.58 0.31,14.42 -0.63,24.06 -1.1,17.32 2.51,27.35 10.97,30.17 6.11,1.96 11.29,1.49 15.2,-1.49 4.09,-2.74 7.53,-8.7 10.36,-17.39 l 43.88,-134.57 c 2.36,-6.98 2.67,-12.3 1.41,-16.15 -1.25,-3.6 -4.54,-6.34 -9.56,-7.99 -9.72,-3.06 -21.48,2.59 -35.73,17.01 l -1.58,1.17 c -8.78,6.74 -17.87,11.37 -26.96,13.88 -9.09,2.5 -23.82,3.44 -44.2,2.66 z M 9060,6301.71 v 0.08 c -2.5,3.13 -5.17,4.23 -8.14,3.29 -2.2,-0.7 -5.49,-2.11 -8.94,-4.15 -3.44,-2.04 -7.37,-4.7 -11.6,-7.92 l -138.4,-99.77 160.03,4.78 c 6.12,0.4 11.45,0.79 15.83,1.1 -3.13,20.22 -2.04,42.33 -4.22,74.92 -0.64,11.14 -2.36,20.23 -4.56,27.67" /><path
         id="path22"
         style="fill:#1e264d;fill-opacity:1;fill-rule:nonzero;stroke:none"
         d="m 7557.45,1531.73 -260.04,332.77 c -13.79,17.72 -24.46,28.37 -31.98,31.98 -7.36,3.6 -14.73,2.66 -22.1,-2.98 -1.72,-1.41 -4.7,-4.39 -9.09,-9.25 -4.39,-4.85 -7.99,-8.3 -10.66,-10.5 -3.45,-2.2 -6.74,-2.82 -9.56,-1.88 -2.82,0.79 -6.27,3.6 -10.03,8.46 -9.87,12.54 0,38.56 29.63,77.75 29.77,39.19 71.94,80.25 126.65,122.89 36.99,28.84 73.66,49.84 110.03,63.32 36.37,13.33 72.89,19.13 109.41,17.24 49.05,-2.51 95.77,-15.67 139.82,-39.03 44.35,-23.5 82.13,-55.17 113.16,-95.14 65.84,-84.18 94.21,-170.23 84.49,-257.69 -9.56,-87.93 -55.17,-163.64 -137,-227.59 -11.75,-9.25 -32.75,-24.14 -63.01,-45.46 -30.41,-21 -54.39,-38.4 -71.94,-52.04 -7.69,-5.96 -15.83,-12.85 -24.77,-20.69 -8.93,-7.99 -14.58,-12.85 -16.29,-14.1 -7.69,-5.96 -13.96,-9.1 -18.5,-8.94 -4.86,0.16 -9.25,2.98 -13.64,8.31 -5.34,6.9 -0.78,16.93 13.32,30.25 4.23,3.61 6.9,6.43 7.99,8.31 2.67,10.66 2.2,21 -0.93,31.03 -3.29,9.41 -12.7,24.45 -28.22,44.2 z m -128.22,423.21 263.8,-337.78 c 16.31,-21.01 31.04,-33.39 43.89,-36.84 13.02,-3.6 26.81,0.32 41.54,11.92 32.91,25.7 42.48,65.98 28.68,120.69 -13.94,54.55 -50.31,119.76 -109.4,195.3 -55.96,71.48 -110.98,121.17 -164.75,148.91 -54.07,27.59 -96.71,29.16 -128.05,4.71 -13.32,-10.35 -18.34,-23.68 -14.9,-39.66 3.45,-15.99 16.63,-38.41 39.19,-67.25" /><path
         id="path24"
         style="fill:#1e264d;fill-opacity:1;fill-rule:evenodd;stroke:none"
         d="m 7574.85,1940.52 c 0,0 40.28,-43.89 -18.34,-93.26 -7.83,-6.74 -16.46,-13.32 -25.24,-19.75 -2.66,-1.42 -5.48,-3.45 -7.84,-5.8 -34.17,-22.41 -59.87,-40.6 -95.93,-64.27 -36.2,-23.82 -55.48,-39.18 -76.79,-86.36 -21.48,-47.03 2.34,-93.74 15.67,-109.25 13.32,-15.52 30.4,-21.16 30.4,-21.16 0,0 -36.82,39.65 21.96,88.87 27.26,22.88 73.5,50.31 106.89,71.32 54.71,34.64 81.98,45.62 103.61,98.91 21.63,53.13 -7.06,99.68 -21.63,116.77 -14.58,17.08 -32.76,23.98 -32.76,23.98" /><path
         id="path26"
         style="fill:#1e264d;fill-opacity:1;fill-rule:nonzero;stroke:none"
         d="m 6721.06,1021.52 -15.05,121.65 c -45.61,-18.34 -35.11,-55.34 -35.11,-55.34 0,0 -11.13,11.28 -15.36,28.53 -4.23,17.56 -7.37,61.29 31.35,92.17 3.45,2.82 6.89,5.16 10.03,7.36 l -43.73,354.72 c -0.16,1.25 -0.47,3.76 -0.78,7.52 -3.45,23.51 6.89,40.12 30.56,50.32 11.13,4.7 19.28,6.74 24.93,5.79 5.33,-0.94 11.6,-5.01 18.65,-12.7 l 391.54,-455.81 c 0.64,-0.78 1.57,-1.88 2.35,-2.97 14.74,-16.77 29.63,-22.89 45.15,-18.5 10.81,-0.31 18.5,-1.56 22.88,-3.76 4.71,-2.35 8.16,-6.27 10.5,-11.91 2.35,-5.65 2.51,-10.19 0.63,-14.12 -1.88,-3.76 -6.11,-7.05 -12.38,-9.71 l -57.06,-24.46 -135.26,-57.67 -9.73,-4.08 c -13.01,-5.64 -21.79,-8.15 -26.17,-7.84 -4.54,0.16 -7.84,3.14 -10.19,8.47 -4.08,9.72 3.14,22.88 21.95,39.97 1.72,1.56 2.98,2.66 3.6,3.29 2.82,2.35 4.54,5.64 5.18,10.03 0.46,4.39 -0.32,9.25 -2.51,14.43 -1.11,2.5 -2.04,4.38 -2.83,5.79 -0.78,1.1 -1.41,2.51 -2.19,3.29 l -81.04,97.19 c -33.54,-16.3 -95.46,-28.69 -146.86,-39.98 0.62,-2.97 1.25,-5.02 1.4,-5.95 0.63,-5.49 1.41,-6.74 2.04,-11.45 l 9.56,-82.44 c 0.94,-8.15 2.04,-15.36 3.3,-21.47 1.25,-6.12 2.82,-10.98 4.38,-14.9 4.71,-10.82 10.66,-18.179 17.87,-21.781 7.21,-3.609 16.92,-4.398 29.15,-2.199 6.43,0.16 14.11,1.102 23.67,2.82 17.09,2.668 27.28,-0.148 30.73,-8.308 2.51,-5.961 2.51,-10.973 0,-15.051 -2.51,-4.383 -8,-8.301 -16.3,-11.902 l -129.16,-55.18 c -6.58,-2.82 -11.92,-3.598 -15.83,-2.66 -3.61,1.09 -6.59,3.91 -8.63,8.621 -4.07,9.398 0.63,21.629 13.64,36.992 l 0.94,1.559 c 5.96,9.25 9.56,18.5 11.28,27.898 1.89,9.102 1.42,23.681 -1.09,43.731 z m 113.64,229.01 v 0 c 2.98,2.66 3.92,5.33 2.67,8.47 -0.95,2.04 -2.51,5.01 -4.87,8.15 -2.5,3.29 -5.33,6.89 -8.93,10.81 l -110.66,128.07 18.81,-157.69 c 0.94,-6.11 1.72,-11.29 2.5,-15.67 19.76,5.01 41.55,5.79 73.52,10.81 10.98,1.73 19.9,4.23 26.96,7.05" /><path
         id="path28"
         style="fill:#1e264d;fill-opacity:1;fill-rule:nonzero;stroke:none"
         d="m 6018.06,819.48 2.98,-10.648 c 4.23,-14.422 8.46,-25.402 12.85,-32.922 4.39,-7.691 9.25,-13.16 14.89,-16.14 7.99,-1.579 22.26,-0.782 42.47,2.339 20.23,3.461 31.99,0 34.81,-9.871 1.72,-5.957 1.25,-10.808 -1.26,-14.258 -2.67,-3.449 -8.46,-6.429 -17.55,-9.089 l -58.47,-16.621 -81.82,-23.508 c -7.99,-2.352 -14.42,-2.512 -18.97,-0.621 -4.85,1.871 -7.99,5.949 -9.87,12.218 -2.35,7.993 2.67,15.993 14.74,23.821 7.98,5.332 13.94,9.41 17.87,13.16 5.63,2.832 8.77,8.781 9.24,18.031 0.47,9.25 -1.88,25.078 -6.74,47.188 l -88.87,398.121 c -2.2,10.36 -4.39,19.76 -6.59,28.54 -2.19,9.08 -4.07,16.61 -5.79,22.57 -4.55,15.67 -10.04,27.59 -16.31,36.04 -6.43,8.47 -13.32,12.54 -21,12.71 -3.61,0 -8.15,-0.17 -13.8,-0.79 -16.29,-1.1 -25.7,2.82 -28.37,11.91 -1.88,6.58 -0.46,12.07 4.39,16.14 4.86,4.24 17.4,9.1 38.1,15.05 l 94.98,27.12 c 18.65,5.49 32.45,9.09 41.38,10.66 8.77,1.57 14.57,1.88 16.93,0.79 5.33,-2.04 12.54,-10.98 21.78,-26.18 3.93,-6.9 7.38,-12.39 9.88,-16.3 l 212.08,-334.18 17.24,456.75 58.3,16.77 91.86,26.5 27.43,7.83 c 8,2.2 14.27,2.51 18.5,0.62 4.38,-1.87 7.36,-5.8 9.09,-11.91 2.66,-8.93 -2.67,-16.92 -15.83,-23.82 -5.49,-3.13 -9.87,-5.64 -12.85,-7.53 -8.94,-5.96 -14.74,-12.22 -17.25,-19.43 -2.67,-6.9 -2.35,-15.99 0.78,-27.28 1.26,-4.07 2.98,-9.56 5.33,-16.45 2.36,-6.9 4.87,-14.11 7.37,-21.79 l 124.46,-385.282 c 1.25,-3.136 2.81,-7.828 4.54,-13.789 14.27,-43.258 27.75,-66.621 40.6,-70.539 6.11,-1.25 14.42,-0.941 24.92,0.16 15.99,2.039 25.71,-2.672 29,-14.261 1.72,-5.957 1.25,-10.508 -1.1,-14.11 -2.51,-3.449 -7.05,-6.269 -13.63,-8.16 l -74.46,-21.309 -70.85,-20.378 -89.81,-25.704 c -8.78,-2.507 -15.67,-2.816 -20.69,-1.097 -4.86,1.879 -8.47,5.801 -10.19,12.07 -2.67,9.09 2.82,17.711 16.3,26.008 7.36,4.551 12.85,8.16 16.45,11.141 8.47,7.359 13.8,17.402 15.37,29.941 1.57,12.219 0,27.59 -5.17,45.769 l -2.04,6.739 -118.65,376.181 -21.01,-471.951 c -0.16,-3.449 -0.16,-8 -0.16,-14.109 -1.72,-39.031 -9.71,-60.66 -23.67,-64.738 -18.03,-5.172 -35.42,6.109 -52.35,33.699 -2.82,4.551 -5.17,8.469 -7.05,11.449 l -263.18,415.84 98.44,-409.11" /><path
         id="path30"
         style="fill:#1e264d;fill-opacity:1;fill-rule:nonzero;stroke:none"
         d="m 4776.48,729.98 v 450.8 c 0,19.75 -1.56,33.08 -4.7,40.29 -3.13,7.05 -8.31,11.27 -15.52,12.85 -3.29,0.62 -7.52,1.57 -13.01,2.51 -19.59,3.13 -29.62,9.71 -29.62,19.74 0,5.49 1.88,9.41 5.49,11.6 3.6,2.51 10.66,3.45 21,3.45 h 85.27 71.16 c 10.97,0 19.28,-4.07 24.76,-12.07 0.32,-0.31 0.63,-0.62 0.63,-1.09 l 239.51,-376.509 v 245.789 c 0,34.32 -1.25,57.51 -4.39,69.58 -2.82,12.08 -8.15,21.64 -15.68,28.53 -4.38,2.2 -15.36,4.71 -33.06,7.69 -17.88,2.82 -26.81,9.24 -26.81,18.96 0,5.96 2.66,10.34 8,14.1 5.48,3.3 12.85,5.02 22.25,5.02 8.94,0 21.95,-0.47 38.71,-1.56 17.09,-1.1 29.48,-1.57 37.46,-1.57 17.09,0 35.12,0.93 54.09,2.66 4.38,0.32 7.2,0.47 7.83,0.47 7.22,0 12.38,-1.4 15.68,-4.38 2.97,-2.98 4.54,-7.84 4.54,-14.74 0,-9.4 -7.52,-15.99 -22.41,-19.76 -8.62,-2.18 -15.36,-4.38 -20.22,-6.89 -8.94,-2.51 -15.36,-7.21 -18.97,-14.41 -3.76,-6.91 -5.49,-19.45 -5.49,-37.63 v -20.06 -524.78 c 0,-16.769 -1.87,-27.269 -5.95,-31.82 -3.92,-4.539 -11.28,-6.738 -21.48,-6.738 -9.4,0 -17.55,2.508 -24.44,7.207 -6.91,5.019 -13.64,13.011 -20.23,23.98 L 4823.35,1113.85 V 726.219 c 0,-26.649 2.04,-45.297 6.11,-55.957 4.24,-10.352 11.76,-18.801 22.42,-24.602 4.38,-1.418 11.44,-2.512 21.16,-3.14 19.12,-0.938 28.68,-7.051 28.68,-18.032 0,-6.269 -2.19,-10.648 -6.58,-13.468 -4.23,-2.508 -11.6,-3.77 -22.1,-3.77 h -52.98 -86.21 c -8,0 -13.32,0.789 -16.14,2.82 -2.67,1.879 -4.08,5.328 -4.08,10.039 0,9.723 5.49,16.61 16.77,20.993 4.08,1.578 7.52,3.14 10.19,4.558 13.79,4.07 23.36,9.399 28.37,15.672 5.01,6.109 7.52,17.867 7.52,35.258 v 33.39" /><path
         id="path32"
         style="fill:#1e264d;fill-opacity:1;fill-rule:nonzero;stroke:none"
         d="m 3851.53,1398.81 c 1.57,5.02 2.98,10.66 4.24,16.62 1.41,5.96 2.19,9.41 2.35,10.19 1.09,3.6 -0.16,7.05 -3.61,10.49 -3.61,3.46 -9.09,6.12 -16.3,8.16 -15.68,4.54 -30.72,4.07 -45.3,-1.41 -14.58,-5.17 -31.66,-17.71 -51.57,-36.68 -10.34,-9.87 -22.57,-22.42 -36.36,-38.25 -18.19,-20.84 -31.98,-29.77 -41.39,-27.11 -5.95,1.72 -10.18,4.54 -12.22,8.77 -2.35,3.93 -2.66,8.94 -0.94,14.89 2.82,10.2 9.09,26.5 18.65,48.91 9.41,22.41 20.22,46.08 32.45,70.85 1.88,3.6 4.7,9.56 8.78,17.4 15.67,32.29 29.78,46.55 42.47,42.94 143.89,-41.38 314.43,-89.97 445.16,-127.59 4.55,-1.25 7.68,-4.23 9.25,-8.62 1.41,-4.38 1.25,-9.72 -0.63,-15.99 -0.47,-1.71 -5.8,-16.61 -16.3,-44.82 -10.5,-28.21 -24.61,-65.84 -42.33,-112.55 -4.22,-11.12 -8.3,-18.5 -12.53,-22.1 -4.23,-3.76 -8.78,-4.85 -14.27,-3.29 -11.59,3.29 -18.34,22.72 -20.53,58.31 -0.47,8.47 -0.79,15.21 -1.1,20.54 -0.47,2.34 -0.62,5.95 -0.78,10.34 -2.51,47.97 -17.71,75.87 -45.61,83.86 -18.5,5.17 -29.78,6.89 -34.49,4.7 -4.54,-2.04 -9.56,-12.69 -15.05,-32.13 L 3867.68,881.398 c -5.96,-20.539 -8.31,-34.636 -7.05,-42.476 1.09,-7.68 5.17,-13.793 12.22,-18.5 1.73,-1.563 4.55,-3.453 8.62,-5.633 11.91,-6.598 16.62,-14.738 14.27,-24.141 -1.73,-5.648 -5.18,-9.25 -10.51,-10.668 -5.17,-1.25 -12.22,-0.621 -20.69,1.731 l -101.57,28.988 -110.35,31.66 c -7.36,2.2 -12.38,5.02 -15.2,8.473 -2.82,3.598 -3.45,8 -1.88,13.328 2.66,9.41 11.75,13.949 27.27,13.789 3.92,-0.16 6.74,0.16 8.62,0.16 11.29,-1.73 20.06,0.473 26.18,6.422 5.95,6.117 11.91,19.117 17.87,39.348 l 136.05,474.931" /><path
         id="path34"
         style="fill:#1e264d;fill-opacity:1;fill-rule:nonzero;stroke:none"
         d="m 3349.17,1188.77 c -15.21,-17.08 -35.59,-39.65 -60.98,-67.87 -35.73,-39.49 -58.31,-64.57 -68.18,-74.77 -1.1,-1.56 -3.13,-3.76 -5.8,-6.58 -14.26,-15.52 -29.47,-19.43 -45.93,-11.91 -9.56,4.55 -16.14,10.35 -19.12,17.24 -2.98,6.9 -3.61,17.41 -1.57,31.35 0.16,1.1 0.63,5.8 1.73,14.11 15.98,113.32 35.11,242.33 57.36,387.16 1.57,12.38 4.24,29.46 7.69,52.04 15.04,94.67 18.34,150.94 9.4,168.81 -1.41,1.42 -3.92,3.29 -8.15,6.11 -15.36,10.35 -20.38,21.32 -15.05,32.92 2.82,5.96 6.74,9.41 11.76,10.5 5.17,0.94 11.75,-0.47 20.06,-4.23 5.49,-2.66 16.77,-8.46 33.86,-17.56 16.77,-9.09 31.19,-16.29 42.79,-21.78 43.26,-20.22 85.74,-39.04 127.43,-56.43 6.74,-2.66 10.66,-4.39 11.6,-4.86 9.25,-4.39 15.21,-8.78 17.72,-13.79 2.34,-4.55 1.72,-10.66 -1.73,-18.34 -2.98,-5.49 -6.43,-8.94 -10.34,-10.66 -3.77,-1.72 -9.73,-1.88 -17.72,-0.94 -1.57,0.31 -3.92,0.78 -6.74,1.41 -19.44,5.01 -33.39,-1.57 -41.54,-18.97 -1.25,-2.98 -2.34,-5.95 -3.29,-9.4 -1.25,-3.3 -2.03,-6.9 -2.51,-10.82 l -45.76,-304.39 c 0,-1.88 -0.32,-4.24 -0.79,-6.9 -1.1,-4.7 -0.16,-7.68 2.98,-9.41 2.35,-0.78 4.39,-0.62 6.11,-0.15 1.41,0.78 4.08,3.13 7.37,6.89 l 86.52,102.04 c 41.86,48.28 73.2,85.27 94.21,110.98 21.16,25.55 32.6,40.44 34.64,44.83 3.76,7.83 4.54,14.74 2.51,20.69 -2.04,5.95 -8.31,12.54 -19.13,19.75 -0.62,0.63 -1.57,1.88 -3.29,4.07 -10.66,11.6 -13.79,22.1 -9.56,31.04 2.98,6.58 6.74,9.87 11.6,10.66 4.54,0.63 12.7,-1.73 24.45,-7.21 1.72,-0.79 7.52,-4.08 16.93,-9.72 9.4,-5.49 18.03,-10.03 25.86,-13.79 2.67,-1.26 8.63,-3.45 17.87,-6.58 9.56,-3.14 18.03,-6.59 26.02,-10.35 12.07,-5.65 20.22,-10.97 24.3,-16.3 3.92,-4.87 4.54,-10.19 1.88,-15.99 -3.14,-6.58 -10.98,-10.03 -23.83,-10.35 -12.69,-0.47 -21.94,-1.56 -27.74,-4.07 -9.87,-4.86 -40.13,-35.74 -90.6,-92.33 -30.41,-34.01 -55.17,-61.29 -74.46,-82.28 l -120.84,-133.87" /><path
         id="path36"
         style="fill:#1e264d;fill-opacity:1;fill-rule:evenodd;stroke:none"
         d="m 5770.25,940.332 c 0,0 16.3,-58.781 -60.04,-76.332 -10.19,-2.5 -21.01,-4.551 -32.13,-6.27 -3.13,0 -6.58,-0.628 -9.72,-1.57 -41.69,-4.699 -73.36,-9.238 -117.4,-14.109 -43.88,-4.852 -68.49,-10.031 -109.88,-42.949 -41.22,-32.75 -41.38,-86.52 -36.37,-106.743 4.87,-20.218 17.87,-33.379 17.87,-33.379 0,0 -15.2,53.29 61.14,70.692 35.58,8.308 90.28,11.758 130.41,15.359 65.84,6.11 95.92,3.598 140.29,41.848 44.35,38.25 39.8,94.051 34.48,116.461 -5.33,22.41 -18.65,36.992 -18.65,36.992" /><path
         id="path38"
         style="fill:#1e264d;fill-opacity:1;fill-rule:evenodd;stroke:none"
         d="m 5530.42,1313.86 c 126.66,11.91 236.54,-80.26 245.63,-205.66 9.09,-125.071 -86.21,-236.36 -212.86,-247.962 -126.5,-11.918 -236.38,80.254 -245.47,205.492 -8.93,125.24 86.21,236.53 212.7,248.13 z m -8.93,-84.96 c 65.68,10.66 129.94,-43.26 143.43,-120.7 13.47,-77.43 -28.85,-148.899 -94.68,-159.559 -65.67,-10.969 -129.94,43.109 -143.42,120.539 -13.49,77.28 29,148.91 94.67,159.72" /><path
         id="path40"
         style="fill:#1e264d;fill-opacity:1;fill-rule:nonzero;stroke:none"
         d="m 2648.36,1444.89 90.13,84.65 c -42.01,26.17 -65.99,-4.39 -65.99,-4.39 0,0 2.5,15.83 14.26,29.63 11.6,13.79 45.46,42.31 93.58,29.15 4.39,-1.1 8.31,-2.51 12.07,-3.92 l 262.86,246.56 c 1.1,0.78 2.82,2.66 5.64,5.17 17.24,16.62 37,18.34 59.25,5.02 10.5,-6.27 16.93,-11.76 19.6,-16.78 2.34,-5.01 2.66,-12.54 0.78,-22.72 l -138.72,-589.99 c -0.16,-1.1 -0.63,-2.5 -0.94,-3.76 -4.86,-21.95 -0.94,-37.93 11.76,-47.96 6.11,-8.78 9.71,-15.99 10.49,-20.7 0.95,-5.17 -0.31,-10.34 -3.44,-15.67 -3.14,-5.33 -6.74,-8.15 -11.13,-8.78 -4.08,-0.78 -9.25,0.63 -15.36,4.23 l -53.61,31.98 -127.59,75.86 -9.09,5.49 c -12.23,7.21 -19.59,12.85 -21.94,16.61 -2.51,3.93 -2.04,8.47 0.93,13.49 5.34,9.09 20.54,10.96 45.62,5.8 2.19,-0.47 3.76,-0.79 4.86,-1.1 3.45,-0.79 7.21,-0.32 11.13,1.88 3.92,2.2 7.36,5.64 10.19,10.5 1.41,2.35 2.5,4.39 3.13,5.8 0.47,1.26 1.09,2.82 1.41,3.76 l 30.88,123.83 c -33.08,17.56 -80.1,60.82 -119.91,95.92 -1.88,-2.34 -3.14,-4.07 -3.92,-4.69 -4.07,-3.76 -4.7,-5.34 -8.15,-8.47 l -61.29,-56.74 c -6.27,-5.64 -11.44,-10.97 -15.67,-15.67 -4.23,-4.4 -7.37,-8.78 -9.56,-12.38 -5.96,-10.19 -8.31,-19.28 -7.06,-27.44 1.26,-7.99 6.43,-16.3 15.52,-25.07 3.92,-5.18 9.25,-10.98 16.3,-17.56 12.38,-12.23 16.15,-22.26 11.6,-30.1 -3.29,-5.48 -7.37,-8.46 -12.38,-8.77 -5.02,-0.64 -11.44,1.56 -19.28,6.27 l -121.63,72.26 c -6.43,3.91 -10.19,7.51 -11.61,11.28 -1.41,3.61 -0.78,7.84 1.73,12.23 5.33,8.77 18.03,12.38 38.25,10.81 l 1.88,0.16 c 11.13,0.78 20.85,3.29 29.31,7.36 8.78,4.08 20.22,13.02 35.11,26.96 z m 254.08,43.58 v 0 c 4.08,-0.78 6.74,0 8.47,2.82 1.1,2.04 2.66,5.02 3.76,9.09 1.25,3.76 2.51,8.16 3.61,13.49 l 38.39,166.14 -117.24,-108.78 c -4.39,-4.38 -7.99,-8.31 -11.29,-11.44 15.84,-13.01 29.47,-30.57 52.67,-53.61 7.84,-8 15.05,-13.63 21.63,-17.71" /><path
         id="path42"
         style="fill:#1e264d;fill-opacity:1;fill-rule:evenodd;stroke:none"
         d="m 4576.48,898.332 c 0,0 -6.59,-60.512 -84.02,-48.75 -10.5,1.559 -21.31,3.598 -32.13,5.957 -2.82,1.25 -6.43,1.871 -9.72,2.191 -40.28,10.969 -71.47,18.489 -114.27,30.09 -42.63,11.762 -67.39,16.149 -117.87,0.782 -50.63,-15.364 -70.37,-65.364 -73.35,-85.883 -2.83,-20.699 4.39,-37.629 4.39,-37.629 0,0 5.48,55.019 82.91,43.101 36.05,-5.472 88.25,-22.41 126.96,-33.851 63.33,-18.5 90.29,-31.981 145.62,-12.852 55.49,19.442 71.79,72.891 75.08,95.614 3.29,22.738 -3.6,41.23 -3.6,41.23" /><path
         id="path44"
         style="fill:#1e264d;fill-opacity:1;fill-rule:evenodd;stroke:none"
         d="m 4491.36,1334.07 c 121.95,-35.73 190.14,-161.91 152.36,-281.67 -37.77,-119.74 -167.25,-188.08 -289.35,-152.349 -121.79,35.738 -190.13,162.079 -152.35,281.829 37.77,119.75 167.4,187.94 289.34,152.19 z m -39.81,-75.7 c 65.05,-14.27 104.87,-88.1 88.87,-165.2 -15.98,-76.81 -81.82,-127.6 -146.87,-113.49 -65.04,14.261 -104.85,88.08 -88.87,165.05 15.99,76.96 81.82,127.75 146.87,113.64" /></g></g></svg>